ISO-10303-21;
HEADER;
FILE_DESCRIPTION (( 'STEP AP214' ),
    '1' );
FILE_NAME ('aafaque(part).STEP',
    '2024-01-22T08:23:08',
    ( '' ),
    ( '' ),
    'SwSTEP 2.0',
    'SolidWorks 2023',
    '' );
FILE_SCHEMA (( 'AUTOMOTIVE_DESIGN' ));
ENDSEC;

DATA;
#1 = UNCERTAINTY_MEASURE_WITH_UNIT (LENGTH_MEASURE( 1.000000000000000082E-05 ), #273, 'distance_accuracy_value', 'NONE');
#2 = FACE_OUTER_BOUND ( 'NONE', #160, .T. ) ;
#3 = AXIS2_PLACEMENT_3D ( 'NONE', #396, #432, #159 ) ;
#4 = DIRECTION ( 'NONE',  ( 1.000000000000000000, 0.000000000000000000, 0.000000000000000000 ) ) ;
#5 = DIRECTION ( 'NONE',  ( 1.000000000000000000, 0.000000000000000000, 0.000000000000000000 ) ) ;
#6 = ADVANCED_FACE ( 'NONE', ( #412, #2 ), #144, .T. ) ;
#7 = EDGE_LOOP ( 'NONE', ( #384, #408, #125, #98 ) ) ;
#8 = CARTESIAN_POINT ( 'NONE',  ( 0.000000000000000000, 0.000000000000000000, 4.203999999999999737 ) ) ;
#9 = CIRCLE ( 'NONE', #258, 1.250000000000000000 ) ;
#10 = AXIS2_PLACEMENT_3D ( 'NONE', #207, #340, #110 ) ;
#11 = CYLINDRICAL_SURFACE ( 'NONE', #313, 2.100000000000000089 ) ;
#12 =( NAMED_UNIT ( * ) PLANE_ANGLE_UNIT ( ) SI_UNIT ( $, .RADIAN. ) );
#13 = DIRECTION ( 'NONE',  ( 0.000000000000000000, 0.000000000000000000, -1.000000000000000000 ) ) ;
#14 = CIRCLE ( 'NONE', #96, 1.250000000000000000 ) ;
#15 =( NAMED_UNIT ( * ) PLANE_ANGLE_UNIT ( ) SI_UNIT ( $, .RADIAN. ) );
#16 = EDGE_CURVE ( 'NONE', #333, #23, #235, .T. ) ;
#17 = CARTESIAN_POINT ( 'NONE',  ( 0.000000000000000000, 0.000000000000000000, 0.000000000000000000 ) ) ;
#18 =( GEOMETRIC_REPRESENTATION_CONTEXT ( 3 ) GLOBAL_UNCERTAINTY_ASSIGNED_CONTEXT ( ( #334 ) ) GLOBAL_UNIT_ASSIGNED_CONTEXT ( ( #143, #12, #226 ) ) REPRESENTATION_CONTEXT ( 'NONE', 'WORKASPACE' ) );
#19 = ORIENTED_EDGE ( 'NONE', *, *, #402, .T. ) ;
#20 = DIRECTION ( 'NONE',  ( 1.000000000000000000, 0.000000000000000000, 0.000000000000000000 ) ) ;
#21 = ORIENTED_EDGE ( 'NONE', *, *, #214, .F. ) ;
#22 = CYLINDRICAL_SURFACE ( 'NONE', #3, 2.149999999999999911 ) ;
#23 = VERTEX_POINT ( 'NONE', #376 ) ;
#24 = AXIS2_PLACEMENT_3D ( 'NONE', #216, #49, #119 ) ;
#25 = PRESENTATION_LAYER_ASSIGNMENT (  '', '', ( #329 ) ) ;
#26 = CARTESIAN_POINT ( 'NONE',  ( 0.000000000000000000, 0.000000000000000000, 0.2999999999999999889 ) ) ;
#27 = VERTEX_POINT ( 'NONE', #419 ) ;
#28 = DIRECTION ( 'NONE',  ( -1.000000000000000000, 0.000000000000000000, 0.000000000000000000 ) ) ;
#29 = ORIENTED_EDGE ( 'NONE', *, *, #280, .T. ) ;
#30 = CARTESIAN_POINT ( 'NONE',  ( -3.250000000000000000, 0.000000000000000000, 0.2039999999999999869 ) ) ;
#31 = CARTESIAN_POINT ( 'NONE',  ( 0.000000000000000000, 0.000000000000000000, 4.203999999999999737 ) ) ;
#32 = AXIS2_PLACEMENT_3D ( 'NONE', #197, #434, #288 ) ;
#33 = SURFACE_STYLE_FILL_AREA ( #270 ) ;
#34 = CARTESIAN_POINT ( 'NONE',  ( -2.100000000000000089, 0.000000000000000000, 0.5999999999999999778 ) ) ;
#35 = EDGE_CURVE ( 'NONE', #163, #240, #69, .T. ) ;
#36 = ORIENTED_EDGE ( 'NONE', *, *, #346, .T. ) ;
#37 = CARTESIAN_POINT ( 'NONE',  ( 0.000000000000000000, 0.000000000000000000, 4.203999999999999737 ) ) ;
#38 = EDGE_LOOP ( 'NONE', ( #435, #61 ) ) ;
#39 = ADVANCED_FACE ( 'NONE', ( #337 ), #139, .T. ) ;
#40 = AXIS2_PLACEMENT_3D ( 'NONE', #277, #308, #5 ) ;
#41 = CARTESIAN_POINT ( 'NONE',  ( 0.000000000000000000, 0.000000000000000000, 4.203999999999999737 ) ) ;
#42 = LINE ( 'NONE', #34, #355 ) ;
#43 = CARTESIAN_POINT ( 'NONE',  ( -1.250000000000000000, 0.000000000000000000, 4.203999999999999737 ) ) ;
#44 = FACE_BOUND ( 'NONE', #175, .T. ) ;
#45 = DIRECTION ( 'NONE',  ( -0.000000000000000000, 0.000000000000000000, 1.000000000000000000 ) ) ;
#46 = VECTOR ( 'NONE', #256, 39.37007874015748143 ) ;
#47 = CIRCLE ( 'NONE', #228, 2.149999999999999911 ) ;
#48 = VECTOR ( 'NONE', #204, 39.37007874015748143 ) ;
#49 = DIRECTION ( 'NONE',  ( 0.000000000000000000, 0.000000000000000000, -1.000000000000000000 ) ) ;
#50 = ORIENTED_EDGE ( 'NONE', *, *, #295, .F. ) ;
#51 =( LENGTH_UNIT ( ) NAMED_UNIT ( * ) SI_UNIT ( $, .METRE. ) );
#52 = LINE ( 'NONE', #124, #46 ) ;
#53 = APPLICATION_PROTOCOL_DEFINITION ( 'draft international standard', 'automotive_design', 1998, #304 ) ;
#54 = EDGE_CURVE ( 'NONE', #232, #382, #422, .T. ) ;
#55 = DIRECTION ( 'NONE',  ( -1.000000000000000000, 0.000000000000000000, 0.000000000000000000 ) ) ;
#56 = EDGE_LOOP ( 'NONE', ( #230, #134 ) ) ;
#57 = AXIS2_PLACEMENT_3D ( 'NONE', #278, #131, #405 ) ;
#58 = DIRECTION ( 'NONE',  ( 0.000000000000000000, 0.000000000000000000, -1.000000000000000000 ) ) ;
#59 = VERTEX_POINT ( 'NONE', #348 ) ;
#60 = DIRECTION ( 'NONE',  ( 1.000000000000000000, 0.000000000000000000, -0.000000000000000000 ) ) ;
#61 = ORIENTED_EDGE ( 'NONE', *, *, #91, .F. ) ;
#62 = DIRECTION ( 'NONE',  ( -1.000000000000000000, 0.000000000000000000, 0.000000000000000000 ) ) ;
#63 = ORIENTED_EDGE ( 'NONE', *, *, #16, .T. ) ;
#64 = VECTOR ( 'NONE', #215, 39.37007874015748143 ) ;
#65 = PRODUCT_DEFINITION ( 'UNKNOWN', '', #249, #173 ) ;
#66 = CARTESIAN_POINT ( 'NONE',  ( 0.000000000000000000, 0.000000000000000000, 0.6000000000000001998 ) ) ;
#67 = ORIENTED_EDGE ( 'NONE', *, *, #286, .T. ) ;
#68 = CARTESIAN_POINT ( 'NONE',  ( 0.000000000000000000, 0.000000000000000000, 4.203999999999999737 ) ) ;
#69 = LINE ( 'NONE', #203, #213 ) ;
#70 = EDGE_CURVE ( 'NONE', #23, #27, #42, .T. ) ;
#71 = FACE_OUTER_BOUND ( 'NONE', #145, .T. ) ;
#72 = CARTESIAN_POINT ( 'NONE',  ( 0.000000000000000000, 0.000000000000000000, 4.203999999999999737 ) ) ;
#73 = CIRCLE ( 'NONE', #104, 2.100000000000000089 ) ;
#74 = CIRCLE ( 'NONE', #315, 3.250000000000000000 ) ;
#75 = CARTESIAN_POINT ( 'NONE',  ( 0.000000000000000000, 0.000000000000000000, 0.5999999999999999778 ) ) ;
#76 = ORIENTED_EDGE ( 'NONE', *, *, #242, .F. ) ;
#77 = CYLINDRICAL_SURFACE ( 'NONE', #431, 2.100000000000000089 ) ;
#78 = VERTEX_POINT ( 'NONE', #301 ) ;
#79 = DIRECTION ( 'NONE',  ( -0.000000000000000000, -0.000000000000000000, -1.000000000000000000 ) ) ;
#80 = DIRECTION ( 'NONE',  ( -0.000000000000000000, -0.000000000000000000, -1.000000000000000000 ) ) ;
#81 = AXIS2_PLACEMENT_3D ( 'NONE', #8, #45, #387 ) ;
#82 = CARTESIAN_POINT ( 'NONE',  ( -2.149999999999999911, 0.000000000000000000, 0.2999999999999999889 ) ) ;
#83 = PLANE ( 'NONE',  #24 ) ;
#84 = ORIENTED_EDGE ( 'NONE', *, *, #130, .T. ) ;
#85 = CARTESIAN_POINT ( 'NONE',  ( 1.250000000000000000, 1.530808498934191571E-16, 4.203999999999999737 ) ) ;
#86 = AXIS2_PLACEMENT_3D ( 'NONE', #424, #80, #120 ) ;
#87 = CIRCLE ( 'NONE', #148, 3.250000000000000000 ) ;
#88 = DIRECTION ( 'NONE',  ( -1.000000000000000000, 0.000000000000000000, 0.000000000000000000 ) ) ;
#89 = CARTESIAN_POINT ( 'NONE',  ( 0.000000000000000000, 0.000000000000000000, 0.000000000000000000 ) ) ;
#90 = DIRECTION ( 'NONE',  ( 1.000000000000000000, 0.000000000000000000, 0.000000000000000000 ) ) ;
#91 = EDGE_CURVE ( 'NONE', #257, #417, #47, .T. ) ;
#92 = LENGTH_MEASURE_WITH_UNIT ( LENGTH_MEASURE( 0.02539999999999999897 ), #51 );
#93 = DIRECTION ( 'NONE',  ( 0.000000000000000000, 0.000000000000000000, -1.000000000000000000 ) ) ;
#94 = FACE_OUTER_BOUND ( 'NONE', #177, .T. ) ;
#95 = ORIENTED_EDGE ( 'NONE', *, *, #99, .F. ) ;
#96 = AXIS2_PLACEMENT_3D ( 'NONE', #162, #321, #395 ) ;
#97 = DIRECTION ( 'NONE',  ( -1.000000000000000000, 0.000000000000000000, 0.000000000000000000 ) ) ;
#98 = ORIENTED_EDGE ( 'NONE', *, *, #70, .F. ) ;
#99 = EDGE_CURVE ( 'NONE', #382, #269, #343, .T. ) ;
#100 = CYLINDRICAL_SURFACE ( 'NONE', #137, 1.450000000000000178 ) ;
#101 = ORIENTED_EDGE ( 'NONE', *, *, #250, .T. ) ;
#102 = DIRECTION ( 'NONE',  ( -0.000000000000000000, -0.000000000000000000, -1.000000000000000000 ) ) ;
#103 = ORIENTED_EDGE ( 'NONE', *, *, #214, .T. ) ;
#104 = AXIS2_PLACEMENT_3D ( 'NONE', #287, #58, #62 ) ;
#105 = FACE_OUTER_BOUND ( 'NONE', #291, .T. ) ;
#106 = ORIENTED_EDGE ( 'NONE', *, *, #247, .T. ) ;
#107 = EDGE_CURVE ( 'NONE', #433, #78, #253, .T. ) ;
#108 = CARTESIAN_POINT ( 'NONE',  ( -2.149999999999999911, 0.000000000000000000, 0.2999999999999999889 ) ) ;
#109 = ORIENTED_EDGE ( 'NONE', *, *, #286, .F. ) ;
#110 = DIRECTION ( 'NONE',  ( 1.000000000000000000, 0.000000000000000000, -0.000000000000000000 ) ) ;
#111 = DIRECTION ( 'NONE',  ( 1.000000000000000000, 0.000000000000000000, 0.000000000000000000 ) ) ;
#112 = CLOSED_SHELL ( 'NONE', ( #180, #209, #276, #328, #164, #388, #6, #445, #187, #39, #199, #158, #191, #430, #425 ) ) ;
#113 = AXIS2_PLACEMENT_3D ( 'NONE', #37, #237, #4 ) ;
#114 = VERTEX_POINT ( 'NONE', #217 ) ;
#115 = EDGE_LOOP ( 'NONE', ( #406, #331, #142, #360 ) ) ;
#116 = CARTESIAN_POINT ( 'NONE',  ( 0.000000000000000000, 0.000000000000000000, 0.6000000000000001998 ) ) ;
#117 = CARTESIAN_POINT ( 'NONE',  ( 1.450000000000000178, 1.775737858763662163E-16, 4.203999999999999737 ) ) ;
#118 = EDGE_CURVE ( 'NONE', #433, #163, #285, .T. ) ;
#119 = DIRECTION ( 'NONE',  ( -1.000000000000000000, 0.000000000000000000, -0.000000000000000000 ) ) ;
#120 = DIRECTION ( 'NONE',  ( -1.000000000000000000, 0.000000000000000000, 0.000000000000000000 ) ) ;
#121 = EDGE_CURVE ( 'NONE', #155, #269, #126, .T. ) ;
#122 = CARTESIAN_POINT ( 'NONE',  ( 0.000000000000000000, 0.000000000000000000, 0.000000000000000000 ) ) ;
#123 = DIRECTION ( 'NONE',  ( -0.000000000000000000, -0.000000000000000000, -1.000000000000000000 ) ) ;
#124 = CARTESIAN_POINT ( 'NONE',  ( 3.250000000000000000, 3.980102097228898231E-16, 0.2039999999999999869 ) ) ;
#125 = ORIENTED_EDGE ( 'NONE', *, *, #222, .F. ) ;
#126 = CIRCLE ( 'NONE', #218, 1.450000000000000178 ) ;
#127 = CYLINDRICAL_SURFACE ( 'NONE', #379, 2.149999999999999911 ) ;
#128 = ORIENTED_EDGE ( 'NONE', *, *, #352, .T. ) ;
#129 = VECTOR ( 'NONE', #102, 39.37007874015748143 ) ;
#130 = EDGE_CURVE ( 'NONE', #345, #132, #182, .T. ) ;
#131 = DIRECTION ( 'NONE',  ( 0.000000000000000000, 0.000000000000000000, 1.000000000000000000 ) ) ;
#132 = VERTEX_POINT ( 'NONE', #150 ) ;
#133 = CARTESIAN_POINT ( 'NONE',  ( 2.149999999999999911, 2.632990618166808742E-16, 0.2999999999999999889 ) ) ;
#134 = ORIENTED_EDGE ( 'NONE', *, *, #385, .F. ) ;
#135 = FACE_OUTER_BOUND ( 'NONE', #442, .T. ) ;
#136 = ORIENTED_EDGE ( 'NONE', *, *, #107, .T. ) ;
#137 = AXIS2_PLACEMENT_3D ( 'NONE', #189, #233, #55 ) ;
#138 =( LENGTH_UNIT ( ) NAMED_UNIT ( * ) SI_UNIT ( $, .METRE. ) );
#139 = CYLINDRICAL_SURFACE ( 'NONE', #339, 1.450000000000000178 ) ;
#140 = CYLINDRICAL_SURFACE ( 'NONE', #275, 3.250000000000000000 ) ;
#141 = CARTESIAN_POINT ( 'NONE',  ( 0.000000000000000000, 0.000000000000000000, 0.2039999999999999869 ) ) ;
#142 = ORIENTED_EDGE ( 'NONE', *, *, #365, .T. ) ;
#143 =( CONVERSION_BASED_UNIT ( 'INCH', #92 ) LENGTH_UNIT ( ) NAMED_UNIT ( #318 ) );
#144 = PLANE ( 'NONE',  #400 ) ;
#145 = EDGE_LOOP ( 'NONE', ( #274, #327, #284, #322 ) ) ;
#146 = EDGE_CURVE ( 'NONE', #324, #417, #390, .T. ) ;
#147 = APPLICATION_CONTEXT ( 'automotive_design' ) ;
#148 = AXIS2_PLACEMENT_3D ( 'NONE', #398, #363, #20 ) ;
#149 = CARTESIAN_POINT ( 'NONE',  ( 0.000000000000000000, 0.000000000000000000, 0.5999999999999999778 ) ) ;
#150 = CARTESIAN_POINT ( 'NONE',  ( -3.250000000000000000, 0.000000000000000000, 0.000000000000000000 ) ) ;
#151 = AXIS2_PLACEMENT_3D ( 'NONE', #26, #290, #97 ) ;
#152 = PLANE ( 'NONE',  #196 ) ;
#153 = SHAPE_DEFINITION_REPRESENTATION ( #325, #272 ) ;
#154 = DIRECTION ( 'NONE',  ( 0.000000000000000000, 0.000000000000000000, 1.000000000000000000 ) ) ;
#155 = VERTEX_POINT ( 'NONE', #351 ) ;
#156 = DIRECTION ( 'NONE',  ( -1.000000000000000000, 0.000000000000000000, 0.000000000000000000 ) ) ;
#157 = ORIENTED_EDGE ( 'NONE', *, *, #255, .T. ) ;
#158 = ADVANCED_FACE ( 'NONE', ( #44, #181 ), #83, .F. ) ;
#159 = DIRECTION ( 'NONE',  ( -1.000000000000000000, 0.000000000000000000, 0.000000000000000000 ) ) ;
#160 = EDGE_LOOP ( 'NONE', ( #19, #63 ) ) ;
#161 = CIRCLE ( 'NONE', #220, 1.250000000000000000 ) ;
#162 = CARTESIAN_POINT ( 'NONE',  ( 0.000000000000000000, 0.000000000000000000, 4.203999999999999737 ) ) ;
#163 = VERTEX_POINT ( 'NONE', #85 ) ;
#164 = ADVANCED_FACE ( 'NONE', ( #185 ), #11, .T. ) ;
#165 = DIRECTION ( 'NONE',  ( -0.000000000000000000, -0.000000000000000000, -1.000000000000000000 ) ) ;
#166 = ORIENTED_EDGE ( 'NONE', *, *, #99, .T. ) ;
#167 = PRODUCT ( 'aafaque(part)', 'aafaque(part)', '', ( #394 ) ) ;
#168 = LINE ( 'NONE', #202, #129 ) ;
#169 = DIRECTION ( 'NONE',  ( 1.000000000000000000, 0.000000000000000000, -0.000000000000000000 ) ) ;
#170 = AXIS2_PLACEMENT_3D ( 'NONE', #368, #93, #156 ) ;
#171 = PRESENTATION_STYLE_ASSIGNMENT (( #176 ) ) ;
#172 = ORIENTED_EDGE ( 'NONE', *, *, #91, .T. ) ;
#173 = PRODUCT_DEFINITION_CONTEXT ( 'detailed design', #304, 'design' ) ;
#174 = CARTESIAN_POINT ( 'NONE',  ( 0.000000000000000000, 0.000000000000000000, 0.5999999999999999778 ) ) ;
#175 = EDGE_LOOP ( 'NONE', ( #420, #260 ) ) ;
#176 = SURFACE_STYLE_USAGE ( .BOTH. , #441 ) ;
#177 = EDGE_LOOP ( 'NONE', ( #262, #166, #201, #364 ) ) ;
#178 = CIRCLE ( 'NONE', #32, 3.250000000000000000 ) ;
#179 = DIRECTION ( 'NONE',  ( -0.000000000000000000, -0.000000000000000000, -1.000000000000000000 ) ) ;
#180 = ADVANCED_FACE ( 'NONE', ( #283 ), #311, .T. ) ;
#181 = FACE_OUTER_BOUND ( 'NONE', #195, .T. ) ;
#182 = LINE ( 'NONE', #353, #338 ) ;
#183 = CIRCLE ( 'NONE', #113, 1.450000000000000178 ) ;
#184 = AXIS2_PLACEMENT_3D ( 'NONE', #66, #383, #266 ) ;
#185 = FACE_OUTER_BOUND ( 'NONE', #7, .T. ) ;
#186 = PLANE ( 'NONE',  #370 ) ;
#187 = ADVANCED_FACE ( 'NONE', ( #212, #221 ), #186, .T. ) ;
#188 = FACE_OUTER_BOUND ( 'NONE', #439, .T. ) ;
#189 = CARTESIAN_POINT ( 'NONE',  ( 0.000000000000000000, 0.000000000000000000, 4.203999999999999737 ) ) ;
#190 = ORIENTED_EDGE ( 'NONE', *, *, #146, .T. ) ;
#191 = ADVANCED_FACE ( 'NONE', ( #427, #188 ), #152, .F. ) ;
#192 = DIRECTION ( 'NONE',  ( -0.000000000000000000, 0.000000000000000000, 1.000000000000000000 ) ) ;
#193 = ORIENTED_EDGE ( 'NONE', *, *, #319, .T. ) ;
#194 = DIRECTION ( 'NONE',  ( -1.000000000000000000, 0.000000000000000000, 0.000000000000000000 ) ) ;
#195 = EDGE_LOOP ( 'NONE', ( #21, #341 ) ) ;
#196 = AXIS2_PLACEMENT_3D ( 'NONE', #122, #261, #60 ) ;
#197 = CARTESIAN_POINT ( 'NONE',  ( 0.000000000000000000, 0.000000000000000000, 0.2039999999999999869 ) ) ;
#198 = EDGE_LOOP ( 'NONE', ( #103, #404, #172, #312 ) ) ;
#199 = ADVANCED_FACE ( 'NONE', ( #231 ), #127, .T. ) ;
#200 = DIRECTION ( 'NONE',  ( 0.000000000000000000, 0.000000000000000000, 1.000000000000000000 ) ) ;
#201 = ORIENTED_EDGE ( 'NONE', *, *, #385, .T. ) ;
#202 = CARTESIAN_POINT ( 'NONE',  ( 2.100000000000000089, 2.571758278209441464E-16, 0.5999999999999999778 ) ) ;
#203 = CARTESIAN_POINT ( 'NONE',  ( 1.250000000000000000, 1.530808498934191571E-16, 4.203999999999999737 ) ) ;
#204 = DIRECTION ( 'NONE',  ( -0.000000000000000000, -0.000000000000000000, -1.000000000000000000 ) ) ;
#205 = ORIENTED_EDGE ( 'NONE', *, *, #35, .F. ) ;
#206 = CIRCLE ( 'NONE', #170, 2.100000000000000089 ) ;
#207 = CARTESIAN_POINT ( 'NONE',  ( 0.000000000000000000, 0.000000000000000000, 0.2039999999999999869 ) ) ;
#208 = DIRECTION ( 'NONE',  ( -0.000000000000000000, 0.000000000000000000, 1.000000000000000000 ) ) ;
#209 = ADVANCED_FACE ( 'NONE', ( #330 ), #22, .T. ) ;
#210 = FILL_AREA_STYLE_COLOUR ( '', #371 ) ;
#211 = DIRECTION ( 'NONE',  ( 1.000000000000000000, 0.000000000000000000, 0.000000000000000000 ) ) ;
#212 = FACE_BOUND ( 'NONE', #267, .T. ) ;
#213 = VECTOR ( 'NONE', #79, 39.37007874015748143 ) ;
#214 = EDGE_CURVE ( 'NONE', #324, #238, #386, .T. ) ;
#215 = DIRECTION ( 'NONE',  ( 0.000000000000000000, 0.000000000000000000, -1.000000000000000000 ) ) ;
#216 = CARTESIAN_POINT ( 'NONE',  ( 0.000000000000000000, 0.000000000000000000, 0.2999999999999999889 ) ) ;
#217 = CARTESIAN_POINT ( 'NONE',  ( 3.250000000000000000, 3.980102097228898231E-16, 0.2039999999999999869 ) ) ;
#218 = AXIS2_PLACEMENT_3D ( 'NONE', #116, #389, #392 ) ;
#219 = DIRECTION ( 'NONE',  ( 1.000000000000000000, 0.000000000000000000, 0.000000000000000000 ) ) ;
#220 = AXIS2_PLACEMENT_3D ( 'NONE', #381, #200, #407 ) ;
#221 = FACE_OUTER_BOUND ( 'NONE', #369, .T. ) ;
#222 = EDGE_CURVE ( 'NONE', #27, #59, #206, .T. ) ;
#223 = DIMENSIONAL_EXPONENTS ( 1.000000000000000000, 0.000000000000000000, 0.000000000000000000, 0.000000000000000000, 0.000000000000000000, 0.000000000000000000, 0.000000000000000000 ) ;
#224 = CARTESIAN_POINT ( 'NONE',  ( 0.000000000000000000, 0.000000000000000000, 0.000000000000000000 ) ) ;
#225 = DIRECTION ( 'NONE',  ( 0.000000000000000000, 0.000000000000000000, -1.000000000000000000 ) ) ;
#226 =( NAMED_UNIT ( * ) SI_UNIT ( $, .STERADIAN. ) SOLID_ANGLE_UNIT ( ) );
#227 = EDGE_CURVE ( 'NONE', #59, #27, #73, .T. ) ;
#228 = AXIS2_PLACEMENT_3D ( 'NONE', #141, #271, #111 ) ;
#229 = CARTESIAN_POINT ( 'NONE',  ( 2.149999999999999911, 2.632990618166808742E-16, 0.2039999999999999869 ) ) ;
#230 = ORIENTED_EDGE ( 'NONE', *, *, #121, .F. ) ;
#231 = FACE_OUTER_BOUND ( 'NONE', #289, .T. ) ;
#232 = VERTEX_POINT ( 'NONE', #403 ) ;
#233 = DIRECTION ( 'NONE',  ( -0.000000000000000000, -0.000000000000000000, -1.000000000000000000 ) ) ;
#234 = ORIENTED_EDGE ( 'NONE', *, *, #295, .T. ) ;
#235 = CIRCLE ( 'NONE', #40, 2.100000000000000089 ) ;
#236 = ORIENTED_EDGE ( 'NONE', *, *, #118, .T. ) ;
#237 = DIRECTION ( 'NONE',  ( -0.000000000000000000, 0.000000000000000000, 1.000000000000000000 ) ) ;
#238 = VERTEX_POINT ( 'NONE', #133 ) ;
#239 = CYLINDRICAL_SURFACE ( 'NONE', #292, 1.250000000000000000 ) ;
#240 = VERTEX_POINT ( 'NONE', #293 ) ;
#241 = MECHANICAL_DESIGN_GEOMETRIC_PRESENTATION_REPRESENTATION (  '', ( #329 ), #393 ) ;
#242 = EDGE_CURVE ( 'NONE', #238, #257, #366, .T. ) ;
#243 = CARTESIAN_POINT ( 'NONE',  ( 2.100000000000000089, 2.571758278209441464E-16, 0.5999999999999999778 ) ) ;
#244 = CARTESIAN_POINT ( 'NONE',  ( 0.000000000000000000, 0.000000000000000000, 0.5999999999999999778 ) ) ;
#245 = DIRECTION ( 'NONE',  ( -1.000000000000000000, 0.000000000000000000, 0.000000000000000000 ) ) ;
#246 = ORIENTED_EDGE ( 'NONE', *, *, #335, .T. ) ;
#247 = EDGE_CURVE ( 'NONE', #345, #114, #178, .T. ) ;
#248 = VECTOR ( 'NONE', #316, 39.37007874015748143 ) ;
#249 = PRODUCT_DEFINITION_FORMATION_WITH_SPECIFIED_SOURCE ( 'ANY', '', #167, .NOT_KNOWN. ) ;
#250 = EDGE_CURVE ( 'NONE', #238, #324, #349, .T. ) ;
#251 = VECTOR ( 'NONE', #225, 39.37007874015748143 ) ;
#252 = AXIS2_PLACEMENT_3D ( 'NONE', #332, #377, #298 ) ;
#253 = LINE ( 'NONE', #43, #415 ) ;
#254 = CARTESIAN_POINT ( 'NONE',  ( 0.000000000000000000, 0.000000000000000000, 0.2999999999999999889 ) ) ;
#255 = EDGE_CURVE ( 'NONE', #417, #257, #279, .T. ) ;
#256 = DIRECTION ( 'NONE',  ( -0.000000000000000000, -0.000000000000000000, -1.000000000000000000 ) ) ;
#257 = VERTEX_POINT ( 'NONE', #229 ) ;
#258 = AXIS2_PLACEMENT_3D ( 'NONE', #17, #154, #90 ) ;
#259 = CARTESIAN_POINT ( 'NONE',  ( 0.000000000000000000, 0.000000000000000000, 0.2999999999999999889 ) ) ;
#260 = ORIENTED_EDGE ( 'NONE', *, *, #227, .T. ) ;
#261 = DIRECTION ( 'NONE',  ( 0.000000000000000000, 0.000000000000000000, 1.000000000000000000 ) ) ;
#262 = ORIENTED_EDGE ( 'NONE', *, *, #346, .F. ) ;
#263 = PRODUCT_RELATED_PRODUCT_CATEGORY ( 'part', '', ( #167 ) ) ;
#264 = PLANE ( 'NONE',  #10 ) ;
#265 = ORIENTED_EDGE ( 'NONE', *, *, #314, .F. ) ;
#266 = DIRECTION ( 'NONE',  ( 1.000000000000000000, 0.000000000000000000, 0.000000000000000000 ) ) ;
#267 = EDGE_LOOP ( 'NONE', ( #354, #310 ) ) ;
#268 = DIRECTION ( 'NONE',  ( 0.000000000000000000, 0.000000000000000000, 1.000000000000000000 ) ) ;
#269 = VERTEX_POINT ( 'NONE', #359 ) ;
#270 = FILL_AREA_STYLE ('',( #210 ) ) ;
#271 = DIRECTION ( 'NONE',  ( 0.000000000000000000, 0.000000000000000000, 1.000000000000000000 ) ) ;
#272 = ADVANCED_BREP_SHAPE_REPRESENTATION ( 'aafaque(part)', ( #440, #418 ), #18 ) ;
#273 =( CONVERSION_BASED_UNIT ( 'INCH', #302 ) LENGTH_UNIT ( ) NAMED_UNIT ( #223 ) );
#274 = ORIENTED_EDGE ( 'NONE', *, *, #374, .F. ) ;
#275 = AXIS2_PLACEMENT_3D ( 'NONE', #375, #336, #307 ) ;
#276 = ADVANCED_FACE ( 'NONE', ( #94 ), #100, .T. ) ;
#277 = CARTESIAN_POINT ( 'NONE',  ( 0.000000000000000000, 0.000000000000000000, 0.5999999999999999778 ) ) ;
#278 = CARTESIAN_POINT ( 'NONE',  ( 0.000000000000000000, 0.000000000000000000, 0.2039999999999999869 ) ) ;
#279 = CIRCLE ( 'NONE', #57, 2.149999999999999911 ) ;
#280 = EDGE_CURVE ( 'NONE', #163, #433, #14, .T. ) ;
#281 = DIRECTION ( 'NONE',  ( -0.000000000000000000, -0.000000000000000000, -1.000000000000000000 ) ) ;
#282 = DIRECTION ( 'NONE',  ( -1.000000000000000000, 0.000000000000000000, 0.000000000000000000 ) ) ;
#283 = FACE_OUTER_BOUND ( 'NONE', #115, .T. ) ;
#284 = ORIENTED_EDGE ( 'NONE', *, *, #70, .T. ) ;
#285 = CIRCLE ( 'NONE', #81, 1.250000000000000000 ) ;
#286 = EDGE_CURVE ( 'NONE', #78, #240, #9, .T. ) ;
#287 = CARTESIAN_POINT ( 'NONE',  ( 0.000000000000000000, 0.000000000000000000, 0.2999999999999999889 ) ) ;
#288 = DIRECTION ( 'NONE',  ( 1.000000000000000000, 0.000000000000000000, 0.000000000000000000 ) ) ;
#289 = EDGE_LOOP ( 'NONE', ( #76, #101, #190, #157 ) ) ;
#290 = DIRECTION ( 'NONE',  ( 0.000000000000000000, 0.000000000000000000, -1.000000000000000000 ) ) ;
#291 = EDGE_LOOP ( 'NONE', ( #106, #193 ) ) ;
#292 = AXIS2_PLACEMENT_3D ( 'NONE', #68, #165, #245 ) ;
#293 = CARTESIAN_POINT ( 'NONE',  ( 1.250000000000000000, 1.530808498934191571E-16, 0.000000000000000000 ) ) ;
#294 = EDGE_LOOP ( 'NONE', ( #67, #128 ) ) ;
#295 = EDGE_CURVE ( 'NONE', #132, #297, #74, .T. ) ;
#296 = DIRECTION ( 'NONE',  ( 0.000000000000000000, 0.000000000000000000, -1.000000000000000000 ) ) ;
#297 = VERTEX_POINT ( 'NONE', #323 ) ;
#298 = DIRECTION ( 'NONE',  ( 1.000000000000000000, 0.000000000000000000, 0.000000000000000000 ) ) ;
#299 = ORIENTED_EDGE ( 'NONE', *, *, #365, .F. ) ;
#300 = CYLINDRICAL_SURFACE ( 'NONE', #309, 1.250000000000000000 ) ;
#301 = CARTESIAN_POINT ( 'NONE',  ( -1.250000000000000000, 0.000000000000000000, 0.000000000000000000 ) ) ;
#302 = LENGTH_MEASURE_WITH_UNIT ( LENGTH_MEASURE( 0.02539999999999999897 ), #138 );
#303 = EDGE_LOOP ( 'NONE', ( #265, #399, #84, #234 ) ) ;
#304 = APPLICATION_CONTEXT ( 'automotive_design' ) ;
#305 = DIRECTION ( 'NONE',  ( 1.000000000000000000, 0.000000000000000000, 0.000000000000000000 ) ) ;
#306 = DIRECTION ( 'NONE',  ( 0.000000000000000000, 0.000000000000000000, 1.000000000000000000 ) ) ;
#307 = DIRECTION ( 'NONE',  ( -1.000000000000000000, 0.000000000000000000, 0.000000000000000000 ) ) ;
#308 = DIRECTION ( 'NONE',  ( 0.000000000000000000, 0.000000000000000000, 1.000000000000000000 ) ) ;
#309 = AXIS2_PLACEMENT_3D ( 'NONE', #41, #123, #282 ) ;
#310 = ORIENTED_EDGE ( 'NONE', *, *, #280, .F. ) ;
#311 = CYLINDRICAL_SURFACE ( 'NONE', #86, 3.250000000000000000 ) ;
#312 = ORIENTED_EDGE ( 'NONE', *, *, #146, .F. ) ;
#313 = AXIS2_PLACEMENT_3D ( 'NONE', #149, #281, #88 ) ;
#314 = EDGE_CURVE ( 'NONE', #114, #297, #52, .T. ) ;
#315 = AXIS2_PLACEMENT_3D ( 'NONE', #224, #428, #358 ) ;
#316 = DIRECTION ( 'NONE',  ( -0.000000000000000000, -0.000000000000000000, -1.000000000000000000 ) ) ;
#317 = EDGE_LOOP ( 'NONE', ( #95, #437, #246, #367 ) ) ;
#318 = DIMENSIONAL_EXPONENTS ( 1.000000000000000000, 0.000000000000000000, 0.000000000000000000, 0.000000000000000000, 0.000000000000000000, 0.000000000000000000, 0.000000000000000000 ) ;
#319 = EDGE_CURVE ( 'NONE', #114, #345, #87, .T. ) ;
#320 = DIRECTION ( 'NONE',  ( 1.000000000000000000, 0.000000000000000000, 0.000000000000000000 ) ) ;
#321 = DIRECTION ( 'NONE',  ( -0.000000000000000000, 0.000000000000000000, 1.000000000000000000 ) ) ;
#322 = ORIENTED_EDGE ( 'NONE', *, *, #227, .F. ) ;
#323 = CARTESIAN_POINT ( 'NONE',  ( 3.250000000000000000, 3.980102097228898231E-16, 0.000000000000000000 ) ) ;
#324 = VERTEX_POINT ( 'NONE', #108 ) ;
#325 = PRODUCT_DEFINITION_SHAPE ( 'NONE', 'NONE',  #65 ) ;
#326 = CARTESIAN_POINT ( 'NONE',  ( 2.149999999999999911, 2.632990618166808742E-16, 0.2999999999999999889 ) ) ;
#327 = ORIENTED_EDGE ( 'NONE', *, *, #402, .F. ) ;
#328 = ADVANCED_FACE ( 'NONE', ( #135 ), #239, .F. ) ;
#329 = STYLED_ITEM ( 'NONE', ( #171 ), #440 ) ;
#330 = FACE_OUTER_BOUND ( 'NONE', #198, .T. ) ;
#331 = ORIENTED_EDGE ( 'NONE', *, *, #314, .T. ) ;
#332 = CARTESIAN_POINT ( 'NONE',  ( 0.000000000000000000, 0.000000000000000000, 0.000000000000000000 ) ) ;
#333 = VERTEX_POINT ( 'NONE', #243 ) ;
#334 = UNCERTAINTY_MEASURE_WITH_UNIT (LENGTH_MEASURE( 1.000000000000000082E-05 ), #143, 'distance_accuracy_value', 'NONE');
#335 = EDGE_CURVE ( 'NONE', #232, #155, #413, .T. ) ;
#336 = DIRECTION ( 'NONE',  ( -0.000000000000000000, -0.000000000000000000, -1.000000000000000000 ) ) ;
#337 = FACE_OUTER_BOUND ( 'NONE', #317, .T. ) ;
#338 = VECTOR ( 'NONE', #423, 39.37007874015748143 ) ;
#339 = AXIS2_PLACEMENT_3D ( 'NONE', #31, #444, #378 ) ;
#340 = DIRECTION ( 'NONE',  ( 0.000000000000000000, 0.000000000000000000, 1.000000000000000000 ) ) ;
#341 = ORIENTED_EDGE ( 'NONE', *, *, #250, .F. ) ;
#342 = CARTESIAN_POINT ( 'NONE',  ( -1.250000000000000000, 0.000000000000000000, 4.203999999999999737 ) ) ;
#343 = LINE ( 'NONE', #117, #248 ) ;
#344 = DIRECTION ( 'NONE',  ( -0.000000000000000000, -0.000000000000000000, -1.000000000000000000 ) ) ;
#345 = VERTEX_POINT ( 'NONE', #30 ) ;
#346 = EDGE_CURVE ( 'NONE', #382, #232, #183, .T. ) ;
#347 = FACE_OUTER_BOUND ( 'NONE', #414, .T. ) ;
#348 = CARTESIAN_POINT ( 'NONE',  ( 2.100000000000000089, 2.571758278209441464E-16, 0.2999999999999999889 ) ) ;
#349 = CIRCLE ( 'NONE', #151, 2.149999999999999911 ) ;
#350 = CARTESIAN_POINT ( 'NONE',  ( 0.000000000000000000, 0.000000000000000000, 4.203999999999999737 ) ) ;
#351 = CARTESIAN_POINT ( 'NONE',  ( -1.450000000000000178, 0.000000000000000000, 0.6000000000000001998 ) ) ;
#352 = EDGE_CURVE ( 'NONE', #240, #78, #161, .T. ) ;
#353 = CARTESIAN_POINT ( 'NONE',  ( -3.250000000000000000, 0.000000000000000000, 0.2039999999999999869 ) ) ;
#354 = ORIENTED_EDGE ( 'NONE', *, *, #118, .F. ) ;
#355 = VECTOR ( 'NONE', #179, 39.37007874015748143 ) ;
#356 = CIRCLE ( 'NONE', #184, 1.450000000000000178 ) ;
#357 = ORIENTED_EDGE ( 'NONE', *, *, #107, .F. ) ;
#358 = DIRECTION ( 'NONE',  ( 1.000000000000000000, 0.000000000000000000, 0.000000000000000000 ) ) ;
#359 = CARTESIAN_POINT ( 'NONE',  ( 1.450000000000000178, 1.775737858763662163E-16, 0.6000000000000001998 ) ) ;
#360 = ORIENTED_EDGE ( 'NONE', *, *, #130, .F. ) ;
#361 = AXIS2_PLACEMENT_3D ( 'NONE', #72, #208, #211 ) ;
#362 = APPLICATION_PROTOCOL_DEFINITION ( 'draft international standard', 'automotive_design', 1998, #147 ) ;
#363 = DIRECTION ( 'NONE',  ( 0.000000000000000000, 0.000000000000000000, 1.000000000000000000 ) ) ;
#364 = ORIENTED_EDGE ( 'NONE', *, *, #335, .F. ) ;
#365 = EDGE_CURVE ( 'NONE', #297, #132, #380, .T. ) ;
#366 = LINE ( 'NONE', #326, #251 ) ;
#367 = ORIENTED_EDGE ( 'NONE', *, *, #121, .T. ) ;
#368 = CARTESIAN_POINT ( 'NONE',  ( 0.000000000000000000, 0.000000000000000000, 0.2999999999999999889 ) ) ;
#369 = EDGE_LOOP ( 'NONE', ( #429, #36 ) ) ;
#370 = AXIS2_PLACEMENT_3D ( 'NONE', #350, #192, #320 ) ;
#371 = COLOUR_RGB ( '',0.7921568627450980005, 0.8196078431372548767, 0.9333333333333333481 ) ;
#372 = CARTESIAN_POINT ( 'NONE',  ( -1.450000000000000178, 0.000000000000000000, 4.203999999999999737 ) ) ;
#373 = ORIENTED_EDGE ( 'NONE', *, *, #352, .F. ) ;
#374 = EDGE_CURVE ( 'NONE', #333, #59, #168, .T. ) ;
#375 = CARTESIAN_POINT ( 'NONE',  ( 0.000000000000000000, 0.000000000000000000, 0.2039999999999999869 ) ) ;
#376 = CARTESIAN_POINT ( 'NONE',  ( -2.100000000000000089, 0.000000000000000000, 0.5999999999999999778 ) ) ;
#377 = DIRECTION ( 'NONE',  ( 0.000000000000000000, 0.000000000000000000, 1.000000000000000000 ) ) ;
#378 = DIRECTION ( 'NONE',  ( -1.000000000000000000, 0.000000000000000000, 0.000000000000000000 ) ) ;
#379 = AXIS2_PLACEMENT_3D ( 'NONE', #254, #13, #436 ) ;
#380 = CIRCLE ( 'NONE', #252, 3.250000000000000000 ) ;
#381 = CARTESIAN_POINT ( 'NONE',  ( 0.000000000000000000, 0.000000000000000000, 0.000000000000000000 ) ) ;
#382 = VERTEX_POINT ( 'NONE', #409 ) ;
#383 = DIRECTION ( 'NONE',  ( 0.000000000000000000, 0.000000000000000000, 1.000000000000000000 ) ) ;
#384 = ORIENTED_EDGE ( 'NONE', *, *, #16, .F. ) ;
#385 = EDGE_CURVE ( 'NONE', #269, #155, #356, .T. ) ;
#386 = CIRCLE ( 'NONE', #426, 2.149999999999999911 ) ;
#387 = DIRECTION ( 'NONE',  ( 1.000000000000000000, 0.000000000000000000, 0.000000000000000000 ) ) ;
#388 = ADVANCED_FACE ( 'NONE', ( #71 ), #77, .T. ) ;
#389 = DIRECTION ( 'NONE',  ( 0.000000000000000000, 0.000000000000000000, 1.000000000000000000 ) ) ;
#390 = LINE ( 'NONE', #82, #64 ) ;
#391 =( NAMED_UNIT ( * ) SI_UNIT ( $, .STERADIAN. ) SOLID_ANGLE_UNIT ( ) );
#392 = DIRECTION ( 'NONE',  ( 1.000000000000000000, 0.000000000000000000, 0.000000000000000000 ) ) ;
#393 =( GEOMETRIC_REPRESENTATION_CONTEXT ( 3 ) GLOBAL_UNCERTAINTY_ASSIGNED_CONTEXT ( ( #1 ) ) GLOBAL_UNIT_ASSIGNED_CONTEXT ( ( #273, #15, #391 ) ) REPRESENTATION_CONTEXT ( 'NONE', 'WORKASPACE' ) );
#394 = PRODUCT_CONTEXT ( 'NONE', #147, 'mechanical' ) ;
#395 = DIRECTION ( 'NONE',  ( 1.000000000000000000, 0.000000000000000000, 0.000000000000000000 ) ) ;
#396 = CARTESIAN_POINT ( 'NONE',  ( 0.000000000000000000, 0.000000000000000000, 0.2999999999999999889 ) ) ;
#397 = DIRECTION ( 'NONE',  ( 0.000000000000000000, 0.000000000000000000, 1.000000000000000000 ) ) ;
#398 = CARTESIAN_POINT ( 'NONE',  ( 0.000000000000000000, 0.000000000000000000, 0.2039999999999999869 ) ) ;
#399 = ORIENTED_EDGE ( 'NONE', *, *, #247, .F. ) ;
#400 = AXIS2_PLACEMENT_3D ( 'NONE', #244, #306, #169 ) ;
#401 = CIRCLE ( 'NONE', #416, 2.100000000000000089 ) ;
#402 = EDGE_CURVE ( 'NONE', #23, #333, #401, .T. ) ;
#403 = CARTESIAN_POINT ( 'NONE',  ( -1.450000000000000178, 0.000000000000000000, 4.203999999999999737 ) ) ;
#404 = ORIENTED_EDGE ( 'NONE', *, *, #242, .T. ) ;
#405 = DIRECTION ( 'NONE',  ( 1.000000000000000000, 0.000000000000000000, 0.000000000000000000 ) ) ;
#406 = ORIENTED_EDGE ( 'NONE', *, *, #319, .F. ) ;
#407 = DIRECTION ( 'NONE',  ( 1.000000000000000000, 0.000000000000000000, 0.000000000000000000 ) ) ;
#408 = ORIENTED_EDGE ( 'NONE', *, *, #374, .T. ) ;
#409 = CARTESIAN_POINT ( 'NONE',  ( 1.450000000000000178, 1.775737858763662163E-16, 4.203999999999999737 ) ) ;
#410 = ORIENTED_EDGE ( 'NONE', *, *, #35, .T. ) ;
#411 = FACE_OUTER_BOUND ( 'NONE', #303, .T. ) ;
#412 = FACE_BOUND ( 'NONE', #56, .T. ) ;
#413 = LINE ( 'NONE', #372, #48 ) ;
#414 = EDGE_LOOP ( 'NONE', ( #205, #29, #136, #373 ) ) ;
#415 = VECTOR ( 'NONE', #421, 39.37007874015748143 ) ;
#416 = AXIS2_PLACEMENT_3D ( 'NONE', #174, #268, #305 ) ;
#417 = VERTEX_POINT ( 'NONE', #438 ) ;
#418 = AXIS2_PLACEMENT_3D ( 'NONE', #89, #397, #219 ) ;
#419 = CARTESIAN_POINT ( 'NONE',  ( -2.100000000000000089, 0.000000000000000000, 0.2999999999999999889 ) ) ;
#420 = ORIENTED_EDGE ( 'NONE', *, *, #222, .T. ) ;
#421 = DIRECTION ( 'NONE',  ( -0.000000000000000000, -0.000000000000000000, -1.000000000000000000 ) ) ;
#422 = CIRCLE ( 'NONE', #361, 1.450000000000000178 ) ;
#423 = DIRECTION ( 'NONE',  ( -0.000000000000000000, -0.000000000000000000, -1.000000000000000000 ) ) ;
#424 = CARTESIAN_POINT ( 'NONE',  ( 0.000000000000000000, 0.000000000000000000, 0.2039999999999999869 ) ) ;
#425 = ADVANCED_FACE ( 'NONE', ( #443, #105 ), #264, .T. ) ;
#426 = AXIS2_PLACEMENT_3D ( 'NONE', #259, #296, #194 ) ;
#427 = FACE_BOUND ( 'NONE', #294, .T. ) ;
#428 = DIRECTION ( 'NONE',  ( 0.000000000000000000, 0.000000000000000000, 1.000000000000000000 ) ) ;
#429 = ORIENTED_EDGE ( 'NONE', *, *, #54, .T. ) ;
#430 = ADVANCED_FACE ( 'NONE', ( #411 ), #140, .T. ) ;
#431 = AXIS2_PLACEMENT_3D ( 'NONE', #75, #344, #28 ) ;
#432 = DIRECTION ( 'NONE',  ( 0.000000000000000000, 0.000000000000000000, -1.000000000000000000 ) ) ;
#433 = VERTEX_POINT ( 'NONE', #342 ) ;
#434 = DIRECTION ( 'NONE',  ( 0.000000000000000000, 0.000000000000000000, 1.000000000000000000 ) ) ;
#435 = ORIENTED_EDGE ( 'NONE', *, *, #255, .F. ) ;
#436 = DIRECTION ( 'NONE',  ( -1.000000000000000000, 0.000000000000000000, 0.000000000000000000 ) ) ;
#437 = ORIENTED_EDGE ( 'NONE', *, *, #54, .F. ) ;
#438 = CARTESIAN_POINT ( 'NONE',  ( -2.149999999999999911, 0.000000000000000000, 0.2039999999999999869 ) ) ;
#439 = EDGE_LOOP ( 'NONE', ( #50, #299 ) ) ;
#440 = MANIFOLD_SOLID_BREP ( 'Cut-Extrude2', #112 ) ;
#441 = SURFACE_SIDE_STYLE ('',( #33 ) ) ;
#442 = EDGE_LOOP ( 'NONE', ( #236, #410, #109, #357 ) ) ;
#443 = FACE_BOUND ( 'NONE', #38, .T. ) ;
#444 = DIRECTION ( 'NONE',  ( -0.000000000000000000, -0.000000000000000000, -1.000000000000000000 ) ) ;
#445 = ADVANCED_FACE ( 'NONE', ( #347 ), #300, .F. ) ;
ENDSEC;
END-ISO-10303-21;
