ISO-10303-21;
HEADER;
FILE_DESCRIPTION (( 'STEP AP214' ),
    '1' );
FILE_NAME ('Lens_mount(system).STEP',
    '2024-11-05T01:49:37',
    ( '' ),
    ( '' ),
    'SwSTEP 2.0',
    'SolidWorks 2022',
    '' );
FILE_SCHEMA (( 'AUTOMOTIVE_DESIGN' ));
ENDSEC;

DATA;
#1 = ORIENTED_EDGE ( 'NONE', *, *, #479, .T. ) ;
#2 = ADVANCED_BREP_SHAPE_REPRESENTATION ( 'Lens_mount(system)', ( #232, #62 ), #374 ) ;
#3 = DIRECTION ( 'NONE',  ( -1.000000000000000000, 0.000000000000000000, 0.000000000000000000 ) ) ;
#4 = EDGE_LOOP ( 'NONE', ( #619, #383 ) ) ;
#5 = EDGE_CURVE ( 'NONE', #625, #122, #531, .T. ) ;
#6 = DIRECTION ( 'NONE',  ( 0.000000000000000000, 0.000000000000000000, 1.000000000000000000 ) ) ;
#7 = CARTESIAN_POINT ( 'NONE',  ( 1.706588475184120934, 1.751430387599710814, 4.203999999999999737 ) ) ;
#8 =( NAMED_UNIT ( * ) PLANE_ANGLE_UNIT ( ) SI_UNIT ( $, .RADIAN. ) );
#9 = FACE_OUTER_BOUND ( 'NONE', #689, .T. ) ;
#10 = VERTEX_POINT ( 'NONE', #126 ) ;
#11 = CIRCLE ( 'NONE', #146, 0.1659999999999995368 ) ;
#12 = DIRECTION ( 'NONE',  ( -1.000000000000000000, 0.000000000000000000, 0.000000000000000000 ) ) ;
#13 = ORIENTED_EDGE ( 'NONE', *, *, #466, .F. ) ;
#14 = CARTESIAN_POINT ( 'NONE',  ( 0.000000000000000000, 0.000000000000000000, 0.2039999999999999869 ) ) ;
#15 = FACE_OUTER_BOUND ( 'NONE', #563, .T. ) ;
#16 = CARTESIAN_POINT ( 'NONE',  ( -1.751430387599708371, 1.872588475184223000, 0.000000000000000000 ) ) ;
#17 = CARTESIAN_POINT ( 'NONE',  ( -1.917430387599813768, 1.872588475184223000, 0.2039999999999997926 ) ) ;
#18 = ORIENTED_EDGE ( 'NONE', *, *, #603, .F. ) ;
#19 = ADVANCED_FACE ( 'NONE', ( #422, #599 ), #59, .T. ) ;
#20 = CARTESIAN_POINT ( 'NONE',  ( -1.872588475184220780, -1.751430387599605565, 4.203999999999999737 ) ) ;
#21 = DIRECTION ( 'NONE',  ( 0.000000000000000000, 0.000000000000000000, -1.000000000000000000 ) ) ;
#22 = EDGE_LOOP ( 'NONE', ( #216, #429, #622, #46 ) ) ;
#23 = CARTESIAN_POINT ( 'NONE',  ( -3.250000000000000000, 0.000000000000000000, 0.2039999999999999869 ) ) ;
#24 = DIRECTION ( 'NONE',  ( -1.000000000000000000, 0.000000000000000000, 0.000000000000000000 ) ) ;
#25 = ORIENTED_EDGE ( 'NONE', *, *, #36, .T. ) ;
#26 = CIRCLE ( 'NONE', #139, 0.1660000000001055354 ) ;
#27 = CARTESIAN_POINT ( 'NONE',  ( 0.000000000000000000, 0.000000000000000000, 0.5999999999999999778 ) ) ;
#28 = CARTESIAN_POINT ( 'NONE',  ( 1.751430387599608007, -1.872588475184118417, 0.000000000000000000 ) ) ;
#29 = ORIENTED_EDGE ( 'NONE', *, *, #672, .T. ) ;
#30 = DIRECTION ( 'NONE',  ( -0.000000000000000000, -0.000000000000000000, -1.000000000000000000 ) ) ;
#31 = CIRCLE ( 'NONE', #47, 2.149999999999999911 ) ;
#32 = CARTESIAN_POINT ( 'NONE',  ( 0.000000000000000000, 0.000000000000000000, 4.203999999999999737 ) ) ;
#33 = FACE_BOUND ( 'NONE', #745, .T. ) ;
#34 = EDGE_LOOP ( 'NONE', ( #107, #38, #474, #143 ) ) ;
#35 = CIRCLE ( 'NONE', #671, 0.1660000000000509124 ) ;
#36 = EDGE_CURVE ( 'NONE', #57, #168, #69, .T. ) ;
#37 = DIRECTION ( 'NONE',  ( 0.000000000000000000, 0.000000000000000000, -1.000000000000000000 ) ) ;
#38 = ORIENTED_EDGE ( 'NONE', *, *, #351, .T. ) ;
#39 = CLOSED_SHELL ( 'NONE', ( #380, #281, #575, #589, #403, #457, #656, #222, #578, #141, #136, #164, #119, #693, #181, #522, #512, #19, #74, #709, #213, #557, #616 ) ) ;
#40 = AXIS2_PLACEMENT_3D ( 'NONE', #562, #451, #220 ) ;
#41 = LINE ( 'NONE', #458, #337 ) ;
#42 = CARTESIAN_POINT ( 'NONE',  ( 0.000000000000000000, 0.000000000000000000, 0.6000000000000001998 ) ) ;
#43 =( CONVERSION_BASED_UNIT ( 'INCH', #336 ) LENGTH_UNIT ( ) NAMED_UNIT ( #260 ) );
#44 = ORIENTED_EDGE ( 'NONE', *, *, #340, .T. ) ;
#45 = FILL_AREA_STYLE ('',( #215 ) ) ;
#46 = ORIENTED_EDGE ( 'NONE', *, *, #311, .F. ) ;
#47 = AXIS2_PLACEMENT_3D ( 'NONE', #537, #652, #73 ) ;
#48 = STYLED_ITEM ( 'NONE', ( #66 ), #2 ) ;
#49 = AXIS2_PLACEMENT_3D ( 'NONE', #747, #37, #449 ) ;
#50 = DIRECTION ( 'NONE',  ( -0.000000000000000000, -0.000000000000000000, -1.000000000000000000 ) ) ;
#51 = EDGE_CURVE ( 'NONE', #670, #97, #26, .T. ) ;
#52 = PLANE ( 'NONE',  #390 ) ;
#53 = VERTEX_POINT ( 'NONE', #129 ) ;
#54 = UNCERTAINTY_MEASURE_WITH_UNIT (LENGTH_MEASURE( 1.000000000000000082E-05 ), #124, 'distance_accuracy_value', 'NONE');
#55 =( NAMED_UNIT ( * ) SI_UNIT ( $, .STERADIAN. ) SOLID_ANGLE_UNIT ( ) );
#56 = DIRECTION ( 'NONE',  ( -0.000000000000000000, -0.000000000000000000, -1.000000000000000000 ) ) ;
#57 = VERTEX_POINT ( 'NONE', #357 ) ;
#58 = DIRECTION ( 'NONE',  ( -1.000000000000000000, 0.000000000000000000, 0.000000000000000000 ) ) ;
#59 = PLANE ( 'NONE',  #687 ) ;
#60 = EDGE_CURVE ( 'NONE', #576, #75, #754, .T. ) ;
#61 = PRODUCT ( 'Lens_mount(system)', 'Lens_mount(system)', '', ( #476 ) ) ;
#62 = AXIS2_PLACEMENT_3D ( 'NONE', #583, #525, #127 ) ;
#63 =( LENGTH_UNIT ( ) NAMED_UNIT ( * ) SI_UNIT ( $, .METRE. ) );
#64 = CARTESIAN_POINT ( 'NONE',  ( 2.038588475184119897, 1.751430387599710814, 0.2039999999999997926 ) ) ;
#65 = ORIENTED_EDGE ( 'NONE', *, *, #102, .T. ) ;
#66 = PRESENTATION_STYLE_ASSIGNMENT (( #594 ) ) ;
#67 = CARTESIAN_POINT ( 'NONE',  ( 0.000000000000000000, 0.000000000000000000, 0.2999999999999999889 ) ) ;
#68 = VECTOR ( 'NONE', #618, 39.37007874015748143 ) ;
#69 = LINE ( 'NONE', #290, #442 ) ;
#70 = LINE ( 'NONE', #584, #572 ) ;
#71 = ORIENTED_EDGE ( 'NONE', *, *, #741, .T. ) ;
#72 = CIRCLE ( 'NONE', #134, 0.1660000000001424225 ) ;
#73 = DIRECTION ( 'NONE',  ( -1.000000000000000000, 0.000000000000000000, 0.000000000000000000 ) ) ;
#74 = ADVANCED_FACE ( 'NONE', ( #15 ), #243, .T. ) ;
#75 = VERTEX_POINT ( 'NONE', #382 ) ;
#76 = CARTESIAN_POINT ( 'NONE',  ( 1.872588475184120416, 1.751430387599710814, 4.203999999999999737 ) ) ;
#77 = DIRECTION ( 'NONE',  ( -0.000000000000000000, -0.000000000000000000, -1.000000000000000000 ) ) ;
#78 = VECTOR ( 'NONE', #230, 39.37007874015748143 ) ;
#79 = VECTOR ( 'NONE', #473, 39.37007874015748143 ) ;
#80 = FACE_OUTER_BOUND ( 'NONE', #206, .T. ) ;
#81 = DIRECTION ( 'NONE',  ( 0.000000000000000000, 0.000000000000000000, 1.000000000000000000 ) ) ;
#82 = ORIENTED_EDGE ( 'NONE', *, *, #235, .F. ) ;
#83 = EDGE_CURVE ( 'NONE', #670, #310, #204, .T. ) ;
#84 = DIRECTION ( 'NONE',  ( -1.000000000000000000, 0.000000000000000000, 0.000000000000000000 ) ) ;
#85 = CARTESIAN_POINT ( 'NONE',  ( 0.000000000000000000, 0.000000000000000000, 4.203999999999999737 ) ) ;
#86 = ORIENTED_EDGE ( 'NONE', *, *, #441, .F. ) ;
#87 = DIRECTION ( 'NONE',  ( 1.000000000000000000, 0.000000000000000000, 0.000000000000000000 ) ) ;
#88 = DIRECTION ( 'NONE',  ( 0.000000000000000000, 0.000000000000000000, -1.000000000000000000 ) ) ;
#89 = VERTEX_POINT ( 'NONE', #439 ) ;
#90 = AXIS2_PLACEMENT_3D ( 'NONE', #556, #494, #197 ) ;
#91 = FACE_OUTER_BOUND ( 'NONE', #192, .T. ) ;
#92 = EDGE_CURVE ( 'NONE', #625, #297, #491, .T. ) ;
#93 = DIRECTION ( 'NONE',  ( 0.000000000000000000, 0.000000000000000000, 1.000000000000000000 ) ) ;
#94 = ORIENTED_EDGE ( 'NONE', *, *, #130, .T. ) ;
#95 = DIRECTION ( 'NONE',  ( -0.000000000000000000, -0.000000000000000000, -1.000000000000000000 ) ) ;
#96 = CIRCLE ( 'NONE', #294, 1.250000000000000000 ) ;
#97 = VERTEX_POINT ( 'NONE', #17 ) ;
#98 = DIRECTION ( 'NONE',  ( -0.000000000000000000, -0.000000000000000000, -1.000000000000000000 ) ) ;
#99 = DIRECTION ( 'NONE',  ( 0.000000000000000000, 0.000000000000000000, 1.000000000000000000 ) ) ;
#100 = DIRECTION ( 'NONE',  ( 0.000000000000000000, 0.000000000000000000, 1.000000000000000000 ) ) ;
#101 = ORIENTED_EDGE ( 'NONE', *, *, #384, .T. ) ;
#102 = EDGE_CURVE ( 'NONE', #350, #172, #550, .T. ) ;
#103 = AXIS2_PLACEMENT_3D ( 'NONE', #739, #88, #548 ) ;
#104 = DIRECTION ( 'NONE',  ( -1.000000000000000000, 0.000000000000000000, 0.000000000000000000 ) ) ;
#105 = CARTESIAN_POINT ( 'NONE',  ( 1.250000000000000000, 1.530808498934191571E-16, 4.203999999999999737 ) ) ;
#106 = SURFACE_SIDE_STYLE ('',( #629 ) ) ;
#107 = ORIENTED_EDGE ( 'NONE', *, *, #292, .F. ) ;
#108 = EDGE_CURVE ( 'NONE', #483, #244, #480, .T. ) ;
#109 = DIRECTION ( 'NONE',  ( -1.000000000000000000, 0.000000000000000000, 0.000000000000000000 ) ) ;
#110 = ORIENTED_EDGE ( 'NONE', *, *, #83, .F. ) ;
#111 = AXIS2_PLACEMENT_3D ( 'NONE', #684, #159, #627 ) ;
#112 = AXIS2_PLACEMENT_3D ( 'NONE', #16, #427, #246 ) ;
#113 = DIRECTION ( 'NONE',  ( -1.000000000000000000, 0.000000000000000000, 0.000000000000000000 ) ) ;
#114 = ORIENTED_EDGE ( 'NONE', *, *, #130, .F. ) ;
#115 = AXIS2_PLACEMENT_3D ( 'NONE', #364, #728, #318 ) ;
#116 = AXIS2_PLACEMENT_3D ( 'NONE', #748, #323, #217 ) ;
#117 = APPLICATION_PROTOCOL_DEFINITION ( 'draft international standard', 'automotive_design', 1998, #417 ) ;
#118 = DIRECTION ( 'NONE',  ( -0.000000000000000000, -0.000000000000000000, -1.000000000000000000 ) ) ;
#119 = ADVANCED_FACE ( 'NONE', ( #368, #445, #428, #668, #497, #137 ), #313, .T. ) ;
#120 = EDGE_LOOP ( 'NONE', ( #175, #686, #65, #505 ) ) ;
#121 = LINE ( 'NONE', #463, #388 ) ;
#122 = VERTEX_POINT ( 'NONE', #250 ) ;
#123 = CARTESIAN_POINT ( 'NONE',  ( 0.000000000000000000, 0.000000000000000000, 0.5999999999999999778 ) ) ;
#124 =( CONVERSION_BASED_UNIT ( 'INCH', #414 ) LENGTH_UNIT ( ) NAMED_UNIT ( #381 ) );
#125 = CARTESIAN_POINT ( 'NONE',  ( -1.450000000000000178, 0.000000000000000000, 4.203999999999999737 ) ) ;
#126 = CARTESIAN_POINT ( 'NONE',  ( -2.038588475184363258, -1.751430387599605565, 0.2039999999999997926 ) ) ;
#127 = DIRECTION ( 'NONE',  ( 1.000000000000000000, 0.000000000000000000, 0.000000000000000000 ) ) ;
#128 = CYLINDRICAL_SURFACE ( 'NONE', #186, 3.250000000000000000 ) ;
#129 = CARTESIAN_POINT ( 'NONE',  ( 1.250000000000000000, 1.530808498934191571E-16, 4.203999999999999737 ) ) ;
#130 = EDGE_CURVE ( 'NONE', #122, #662, #539, .T. ) ;
#131 = DIRECTION ( 'NONE',  ( 1.000000000000000000, 0.000000000000000000, 0.000000000000000000 ) ) ;
#132 = ORIENTED_EDGE ( 'NONE', *, *, #702, .F. ) ;
#133 = VECTOR ( 'NONE', #282, 39.37007874015748143 ) ;
#134 = AXIS2_PLACEMENT_3D ( 'NONE', #366, #376, #87 ) ;
#135 = DIRECTION ( 'NONE',  ( -0.000000000000000000, -0.000000000000000000, -1.000000000000000000 ) ) ;
#136 = ADVANCED_FACE ( 'NONE', ( #485 ), #257, .T. ) ;
#137 = FACE_BOUND ( 'NONE', #4, .T. ) ;
#138 = DIRECTION ( 'NONE',  ( -1.000000000000000000, 0.000000000000000000, 0.000000000000000000 ) ) ;
#139 = AXIS2_PLACEMENT_3D ( 'NONE', #538, #708, #419 ) ;
#140 = CARTESIAN_POINT ( 'NONE',  ( 0.000000000000000000, 0.000000000000000000, 0.2039999999999999869 ) ) ;
#141 = ADVANCED_FACE ( 'NONE', ( #723, #719, #435, #33, #602, #309 ), #194, .F. ) ;
#142 = AXIS2_PLACEMENT_3D ( 'NONE', #386, #95, #688 ) ;
#143 = ORIENTED_EDGE ( 'NONE', *, *, #340, .F. ) ;
#144 = DIRECTION ( 'NONE',  ( -1.000000000000000000, 0.000000000000000000, 0.000000000000000000 ) ) ;
#145 = CARTESIAN_POINT ( 'NONE',  ( 1.585430387599557234, -1.872588475184118417, 0.2039999999999997926 ) ) ;
#146 = AXIS2_PLACEMENT_3D ( 'NONE', #182, #421, #131 ) ;
#147 = VERTEX_POINT ( 'NONE', #608 ) ;
#148 = PLANE ( 'NONE',  #237 ) ;
#149 = AXIS2_PLACEMENT_3D ( 'NONE', #277, #270, #329 ) ;
#150 = FACE_OUTER_BOUND ( 'NONE', #633, .T. ) ;
#151 = EDGE_LOOP ( 'NONE', ( #468, #324, #267, #195 ) ) ;
#152 = CARTESIAN_POINT ( 'NONE',  ( 0.000000000000000000, 0.000000000000000000, 0.6000000000000001998 ) ) ;
#153 = DIRECTION ( 'NONE',  ( -1.000000000000000000, 0.000000000000000000, 0.000000000000000000 ) ) ;
#154 = AXIS2_PLACEMENT_3D ( 'NONE', #85, #77, #191 ) ;
#155 = ORIENTED_EDGE ( 'NONE', *, *, #51, .F. ) ;
#156 = AXIS2_PLACEMENT_3D ( 'NONE', #545, #733, #153 ) ;
#157 = FACE_OUTER_BOUND ( 'NONE', #120, .T. ) ;
#158 = ORIENTED_EDGE ( 'NONE', *, *, #5, .F. ) ;
#159 = DIRECTION ( 'NONE',  ( 0.000000000000000000, 0.000000000000000000, 1.000000000000000000 ) ) ;
#160 = DIRECTION ( 'NONE',  ( 0.000000000000000000, 0.000000000000000000, 1.000000000000000000 ) ) ;
#161 = ORIENTED_EDGE ( 'NONE', *, *, #651, .F. ) ;
#162 = DIRECTION ( 'NONE',  ( -0.000000000000000000, -0.000000000000000000, -1.000000000000000000 ) ) ;
#163 = ORIENTED_EDGE ( 'NONE', *, *, #593, .F. ) ;
#164 = ADVANCED_FACE ( 'NONE', ( #150 ), #664, .F. ) ;
#165 = FACE_OUTER_BOUND ( 'NONE', #452, .T. ) ;
#166 = ORIENTED_EDGE ( 'NONE', *, *, #757, .F. ) ;
#167 =( LENGTH_UNIT ( ) NAMED_UNIT ( * ) SI_UNIT ( $, .METRE. ) );
#168 = VERTEX_POINT ( 'NONE', #304 ) ;
#169 = DIRECTION ( 'NONE',  ( -1.000000000000000000, 0.000000000000000000, 0.000000000000000000 ) ) ;
#170 = EDGE_CURVE ( 'NONE', #97, #670, #579, .T. ) ;
#171 = DIRECTION ( 'NONE',  ( -0.000000000000000000, -0.000000000000000000, -1.000000000000000000 ) ) ;
#172 = VERTEX_POINT ( 'NONE', #661 ) ;
#173 = CIRCLE ( 'NONE', #469, 0.1660000000001424225 ) ;
#174 = CYLINDRICAL_SURFACE ( 'NONE', #212, 0.1660000000000509124 ) ;
#175 = ORIENTED_EDGE ( 'NONE', *, *, #729, .T. ) ;
#176 = CARTESIAN_POINT ( 'NONE',  ( 1.585430387599557234, -1.872588475184118417, 4.203999999999999737 ) ) ;
#177 = CARTESIAN_POINT ( 'NONE',  ( 0.000000000000000000, 0.000000000000000000, 0.5999999999999999778 ) ) ;
#178 = CIRCLE ( 'NONE', #611, 3.250000000000000000 ) ;
#179 = CYLINDRICAL_SURFACE ( 'NONE', #571, 1.250000000000000000 ) ;
#180 = VERTEX_POINT ( 'NONE', #145 ) ;
#181 = ADVANCED_FACE ( 'NONE', ( #371 ), #614, .T. ) ;
#182 = CARTESIAN_POINT ( 'NONE',  ( 1.872588475184120416, 1.751430387599710814, 0.2039999999999997926 ) ) ;
#183 = AXIS2_PLACEMENT_3D ( 'NONE', #432, #81, #264 ) ;
#184 = ORIENTED_EDGE ( 'NONE', *, *, #702, .T. ) ;
#185 = CARTESIAN_POINT ( 'NONE',  ( -1.751430387599708371, 1.872588475184223000, 4.203999999999999737 ) ) ;
#186 = AXIS2_PLACEMENT_3D ( 'NONE', #14, #352, #591 ) ;
#187 = ORIENTED_EDGE ( 'NONE', *, *, #499, .F. ) ;
#188 = VERTEX_POINT ( 'NONE', #254 ) ;
#189 = EDGE_CURVE ( 'NONE', #662, #122, #528, .T. ) ;
#190 = DIRECTION ( 'NONE',  ( -0.000000000000000000, -0.000000000000000000, -1.000000000000000000 ) ) ;
#191 = DIRECTION ( 'NONE',  ( -1.000000000000000000, 0.000000000000000000, 0.000000000000000000 ) ) ;
#192 = EDGE_LOOP ( 'NONE', ( #402, #730 ) ) ;
#193 = CARTESIAN_POINT ( 'NONE',  ( 2.149999999999999911, 2.632990618166809728E-16, 0.2999999999999999889 ) ) ;
#194 = PLANE ( 'NONE',  #183 ) ;
#195 = ORIENTED_EDGE ( 'NONE', *, *, #646, .F. ) ;
#196 = CYLINDRICAL_SURFACE ( 'NONE', #706, 0.1660000000001424225 ) ;
#197 = DIRECTION ( 'NONE',  ( -1.000000000000000000, 0.000000000000000000, 0.000000000000000000 ) ) ;
#198 = VERTEX_POINT ( 'NONE', #401 ) ;
#199 = LINE ( 'NONE', #438, #275 ) ;
#200 = AXIS2_PLACEMENT_3D ( 'NONE', #42, #203, #738 ) ;
#201 = DIRECTION ( 'NONE',  ( -1.000000000000000000, 0.000000000000000000, 0.000000000000000000 ) ) ;
#202 = VERTEX_POINT ( 'NONE', #459 ) ;
#203 = DIRECTION ( 'NONE',  ( 0.000000000000000000, 0.000000000000000000, 1.000000000000000000 ) ) ;
#204 = LINE ( 'NONE', #542, #68 ) ;
#205 = AXIS2_PLACEMENT_3D ( 'NONE', #501, #377, #301 ) ;
#206 = EDGE_LOOP ( 'NONE', ( #347, #280, #44, #184 ) ) ;
#207 = UNCERTAINTY_MEASURE_WITH_UNIT (LENGTH_MEASURE( 1.000000000000000082E-05 ), #43, 'distance_accuracy_value', 'NONE');
#208 = AXIS2_PLACEMENT_3D ( 'NONE', #587, #523, #3 ) ;
#209 = CARTESIAN_POINT ( 'NONE',  ( 1.872588475184120416, 1.751430387599710814, 4.203999999999999737 ) ) ;
#210 = LINE ( 'NONE', #682, #268 ) ;
#211 = ORIENTED_EDGE ( 'NONE', *, *, #269, .F. ) ;
#212 = AXIS2_PLACEMENT_3D ( 'NONE', #710, #470, #411 ) ;
#213 = ADVANCED_FACE ( 'NONE', ( #165 ), #508, .F. ) ;
#214 = DIRECTION ( 'NONE',  ( -0.000000000000000000, -0.000000000000000000, -1.000000000000000000 ) ) ;
#215 = FILL_AREA_STYLE_COLOUR ( '', #742 ) ;
#216 = ORIENTED_EDGE ( 'NONE', *, *, #170, .T. ) ;
#217 = DIRECTION ( 'NONE',  ( -1.000000000000000000, 0.000000000000000000, 0.000000000000000000 ) ) ;
#218 = ORIENTED_EDGE ( 'NONE', *, *, #253, .T. ) ;
#219 = DIRECTION ( 'NONE',  ( 0.000000000000000000, 0.000000000000000000, -1.000000000000000000 ) ) ;
#220 = DIRECTION ( 'NONE',  ( -1.000000000000000000, 0.000000000000000000, 0.000000000000000000 ) ) ;
#221 = ORIENTED_EDGE ( 'NONE', *, *, #681, .F. ) ;
#222 = ADVANCED_FACE ( 'NONE', ( #272 ), #279, .T. ) ;
#223 = EDGE_LOOP ( 'NONE', ( #716, #524 ) ) ;
#224 =( NAMED_UNIT ( * ) SI_UNIT ( $, .STERADIAN. ) SOLID_ANGLE_UNIT ( ) );
#225 = EDGE_LOOP ( 'NONE', ( #221, #558, #353, #683 ) ) ;
#226 = LINE ( 'NONE', #125, #78 ) ;
#227 = ORIENTED_EDGE ( 'NONE', *, *, #612, .F. ) ;
#228 = PRODUCT_DEFINITION_CONTEXT ( 'detailed design', #417, 'design' ) ;
#229 = AXIS2_PLACEMENT_3D ( 'NONE', #759, #100, #504 ) ;
#230 = DIRECTION ( 'NONE',  ( -0.000000000000000000, -0.000000000000000000, -1.000000000000000000 ) ) ;
#231 = ORIENTED_EDGE ( 'NONE', *, *, #384, .F. ) ;
#232 = MANIFOLD_SOLID_BREP ( 'Cut-Extrude2', #39 ) ;
#233 = FILL_AREA_STYLE_COLOUR ( '', #734 ) ;
#234 = LINE ( 'NONE', #356, #79 ) ;
#235 = EDGE_CURVE ( 'NONE', #172, #350, #173, .T. ) ;
#236 = DIRECTION ( 'NONE',  ( -0.000000000000000000, -0.000000000000000000, -1.000000000000000000 ) ) ;
#237 = AXIS2_PLACEMENT_3D ( 'NONE', #252, #554, #547 ) ;
#238 = DIRECTION ( 'NONE',  ( 0.000000000000000000, 0.000000000000000000, -1.000000000000000000 ) ) ;
#239 = ORIENTED_EDGE ( 'NONE', *, *, #258, .F. ) ;
#240 = EDGE_CURVE ( 'NONE', #566, #57, #444, .T. ) ;
#241 = CYLINDRICAL_SURFACE ( 'NONE', #475, 1.450000000000000178 ) ;
#242 = STYLED_ITEM ( 'NONE', ( #685 ), #232 ) ;
#243 = CYLINDRICAL_SURFACE ( 'NONE', #698, 2.100000000000000089 ) ;
#244 = VERTEX_POINT ( 'NONE', #391 ) ;
#245 = EDGE_CURVE ( 'NONE', #180, #740, #493, .T. ) ;
#246 = DIRECTION ( 'NONE',  ( -1.000000000000000000, 0.000000000000000000, 0.000000000000000000 ) ) ;
#247 = DIRECTION ( 'NONE',  ( 1.000000000000000000, 0.000000000000000000, -0.000000000000000000 ) ) ;
#248 = EDGE_LOOP ( 'NONE', ( #161, #86 ) ) ;
#249 = CARTESIAN_POINT ( 'NONE',  ( 0.000000000000000000, 0.000000000000000000, 0.2999999999999999889 ) ) ;
#250 = CARTESIAN_POINT ( 'NONE',  ( 1.706588475184120934, 1.751430387599710814, 0.000000000000000000 ) ) ;
#251 = EDGE_LOOP ( 'NONE', ( #703, #13 ) ) ;
#252 = CARTESIAN_POINT ( 'NONE',  ( 0.000000000000000000, 0.000000000000000000, 0.2999999999999999889 ) ) ;
#253 = EDGE_CURVE ( 'NONE', #10, #172, #341, .T. ) ;
#254 = CARTESIAN_POINT ( 'NONE',  ( 1.450000000000000178, 1.775737858763662163E-16, 0.6000000000000001998 ) ) ;
#255 = ORIENTED_EDGE ( 'NONE', *, *, #240, .T. ) ;
#256 = CYLINDRICAL_SURFACE ( 'NONE', #262, 0.1660000000001055354 ) ;
#257 = CYLINDRICAL_SURFACE ( 'NONE', #156, 3.250000000000000000 ) ;
#258 = EDGE_CURVE ( 'NONE', #297, #662, #210, .T. ) ;
#259 = EDGE_LOOP ( 'NONE', ( #756, #71, #298, #680 ) ) ;
#260 = DIMENSIONAL_EXPONENTS ( 1.000000000000000000, 0.000000000000000000, 0.000000000000000000, 0.000000000000000000, 0.000000000000000000, 0.000000000000000000, 0.000000000000000000 ) ;
#261 = CYLINDRICAL_SURFACE ( 'NONE', #149, 2.149999999999999911 ) ;
#262 = AXIS2_PLACEMENT_3D ( 'NONE', #185, #312, #144 ) ;
#263 = LINE ( 'NONE', #450, #658 ) ;
#264 = DIRECTION ( 'NONE',  ( 1.000000000000000000, 0.000000000000000000, -0.000000000000000000 ) ) ;
#265 = ORIENTED_EDGE ( 'NONE', *, *, #325, .F. ) ;
#266 = VECTOR ( 'NONE', #471, 39.37007874015748143 ) ;
#267 = ORIENTED_EDGE ( 'NONE', *, *, #348, .F. ) ;
#268 = VECTOR ( 'NONE', #56, 39.37007874015748143 ) ;
#269 = EDGE_CURVE ( 'NONE', #198, #89, #288, .T. ) ;
#270 = DIRECTION ( 'NONE',  ( 0.000000000000000000, 0.000000000000000000, -1.000000000000000000 ) ) ;
#271 = DIRECTION ( 'NONE',  ( 1.000000000000000000, 0.000000000000000000, -0.000000000000000000 ) ) ;
#272 = FACE_OUTER_BOUND ( 'NONE', #34, .T. ) ;
#273 = ORIENTED_EDGE ( 'NONE', *, *, #60, .F. ) ;
#274 = DIRECTION ( 'NONE',  ( 0.000000000000000000, 0.000000000000000000, -1.000000000000000000 ) ) ;
#275 = VECTOR ( 'NONE', #308, 39.37007874015748143 ) ;
#276 = ORIENTED_EDGE ( 'NONE', *, *, #325, .T. ) ;
#277 = CARTESIAN_POINT ( 'NONE',  ( 0.000000000000000000, 0.000000000000000000, 0.2999999999999999889 ) ) ;
#278 = ORIENTED_EDGE ( 'NONE', *, *, #245, .F. ) ;
#279 = CYLINDRICAL_SURFACE ( 'NONE', #431, 1.450000000000000178 ) ;
#280 = ORIENTED_EDGE ( 'NONE', *, *, #287, .F. ) ;
#281 = ADVANCED_FACE ( 'NONE', ( #157 ), #327, .F. ) ;
#282 = DIRECTION ( 'NONE',  ( -0.000000000000000000, -0.000000000000000000, -1.000000000000000000 ) ) ;
#283 = ORIENTED_EDGE ( 'NONE', *, *, #529, .F. ) ;
#284 = CIRCLE ( 'NONE', #111, 3.250000000000000000 ) ;
#285 = CARTESIAN_POINT ( 'NONE',  ( -1.706588475184078302, -1.751430387599605565, 0.000000000000000000 ) ) ;
#286 = VERTEX_POINT ( 'NONE', #632 ) ;
#287 = EDGE_CURVE ( 'NONE', #549, #588, #725, .T. ) ;
#288 = CIRCLE ( 'NONE', #344, 2.149999999999999911 ) ;
#289 = DIRECTION ( 'NONE',  ( -1.000000000000000000, 0.000000000000000000, 0.000000000000000000 ) ) ;
#290 = CARTESIAN_POINT ( 'NONE',  ( 3.250000000000000000, 3.980102097228898231E-16, 0.2039999999999999869 ) ) ;
#291 = CARTESIAN_POINT ( 'NONE',  ( 0.000000000000000000, 0.000000000000000000, 4.203999999999999737 ) ) ;
#292 = EDGE_CURVE ( 'NONE', #588, #549, #540, .T. ) ;
#293 = ORIENTED_EDGE ( 'NONE', *, *, #235, .T. ) ;
#294 = AXIS2_PLACEMENT_3D ( 'NONE', #515, #690, #169 ) ;
#295 = VECTOR ( 'NONE', #98, 39.37007874015748143 ) ;
#296 = DIRECTION ( 'NONE',  ( -0.000000000000000000, -0.000000000000000000, -1.000000000000000000 ) ) ;
#297 = VERTEX_POINT ( 'NONE', #64 ) ;
#298 = ORIENTED_EDGE ( 'NONE', *, *, #441, .T. ) ;
#299 = DIRECTION ( 'NONE',  ( 1.000000000000000000, 0.000000000000000000, 0.000000000000000000 ) ) ;
#300 = VECTOR ( 'NONE', #701, 39.37007874015748143 ) ;
#301 = DIRECTION ( 'NONE',  ( 1.000000000000000000, 0.000000000000000000, 0.000000000000000000 ) ) ;
#302 = FACE_OUTER_BOUND ( 'NONE', #606, .T. ) ;
#303 = DIRECTION ( 'NONE',  ( 0.000000000000000000, 0.000000000000000000, 1.000000000000000000 ) ) ;
#304 = CARTESIAN_POINT ( 'NONE',  ( 3.250000000000000000, 3.980102097228898231E-16, 0.000000000000000000 ) ) ;
#305 = ORIENTED_EDGE ( 'NONE', *, *, #358, .T. ) ;
#306 = CIRCLE ( 'NONE', #200, 1.450000000000000178 ) ;
#307 = AXIS2_PLACEMENT_3D ( 'NONE', #27, #135, #363 ) ;
#308 = DIRECTION ( 'NONE',  ( -0.000000000000000000, -0.000000000000000000, -1.000000000000000000 ) ) ;
#309 = FACE_BOUND ( 'NONE', #248, .T. ) ;
#310 = VERTEX_POINT ( 'NONE', #359 ) ;
#311 = EDGE_CURVE ( 'NONE', #97, #527, #526, .T. ) ;
#312 = DIRECTION ( 'NONE',  ( -0.000000000000000000, -0.000000000000000000, -1.000000000000000000 ) ) ;
#313 = PLANE ( 'NONE',  #343 ) ;
#314 = ORIENTED_EDGE ( 'NONE', *, *, #108, .F. ) ;
#315 = DIMENSIONAL_EXPONENTS ( 1.000000000000000000, 0.000000000000000000, 0.000000000000000000, 0.000000000000000000, 0.000000000000000000, 0.000000000000000000, 0.000000000000000000 ) ;
#316 = LINE ( 'NONE', #434, #636 ) ;
#317 = DIRECTION ( 'NONE',  ( -1.000000000000000000, 0.000000000000000000, 0.000000000000000000 ) ) ;
#318 = DIRECTION ( 'NONE',  ( -1.000000000000000000, 0.000000000000000000, 0.000000000000000000 ) ) ;
#319 = ORIENTED_EDGE ( 'NONE', *, *, #358, .F. ) ;
#320 = FACE_OUTER_BOUND ( 'NONE', #372, .T. ) ;
#321 = AXIS2_PLACEMENT_3D ( 'NONE', #637, #99, #405 ) ;
#322 = DIRECTION ( 'NONE',  ( 0.000000000000000000, 0.000000000000000000, -1.000000000000000000 ) ) ;
#323 = DIRECTION ( 'NONE',  ( -0.000000000000000000, -0.000000000000000000, -1.000000000000000000 ) ) ;
#324 = ORIENTED_EDGE ( 'NONE', *, *, #712, .T. ) ;
#325 = EDGE_CURVE ( 'NONE', #580, #465, #410, .T. ) ;
#326 = CARTESIAN_POINT ( 'NONE',  ( -3.250000000000000000, 0.000000000000000000, 0.000000000000000000 ) ) ;
#327 = CYLINDRICAL_SURFACE ( 'NONE', #142, 0.1660000000001424225 ) ;
#328 = ORIENTED_EDGE ( 'NONE', *, *, #646, .T. ) ;
#329 = DIRECTION ( 'NONE',  ( -1.000000000000000000, 0.000000000000000000, 0.000000000000000000 ) ) ;
#330 = DIRECTION ( 'NONE',  ( 0.000000000000000000, 0.000000000000000000, 1.000000000000000000 ) ) ;
#331 = APPLICATION_CONTEXT ( 'automotive_design' ) ;
#332 = ORIENTED_EDGE ( 'NONE', *, *, #681, .T. ) ;
#333 = DIRECTION ( 'NONE',  ( 0.000000000000000000, 0.000000000000000000, -1.000000000000000000 ) ) ;
#334 = PRODUCT_RELATED_PRODUCT_CATEGORY ( 'part', '', ( #61 ) ) ;
#335 = PRODUCT_DEFINITION_FORMATION_WITH_SPECIFIED_SOURCE ( 'ANY', '', #61, .NOT_KNOWN. ) ;
#336 = LENGTH_MEASURE_WITH_UNIT ( LENGTH_MEASURE( 0.02539999999999999897 ), #447 );
#337 = VECTOR ( 'NONE', #333, 39.37007874015748143 ) ;
#338 = EDGE_LOOP ( 'NONE', ( #18, #273 ) ) ;
#339 = CARTESIAN_POINT ( 'NONE',  ( 1.706588475184120934, 1.751430387599710814, 0.2039999999999997926 ) ) ;
#340 = EDGE_CURVE ( 'NONE', #549, #724, #226, .T. ) ;
#341 = LINE ( 'NONE', #577, #677 ) ;
#342 = EDGE_LOOP ( 'NONE', ( #361, #369 ) ) ;
#343 = AXIS2_PLACEMENT_3D ( 'NONE', #140, #605, #247 ) ;
#344 = AXIS2_PLACEMENT_3D ( 'NONE', #519, #752, #679 ) ;
#345 = ORIENTED_EDGE ( 'NONE', *, *, #108, .T. ) ;
#346 = CARTESIAN_POINT ( 'NONE',  ( 0.000000000000000000, 0.000000000000000000, 0.5999999999999999778 ) ) ;
#347 = ORIENTED_EDGE ( 'NONE', *, *, #351, .F. ) ;
#348 = EDGE_CURVE ( 'NONE', #89, #198, #31, .T. ) ;
#349 = FACE_OUTER_BOUND ( 'NONE', #520, .T. ) ;
#350 = VERTEX_POINT ( 'NONE', #285 ) ;
#351 = EDGE_CURVE ( 'NONE', #588, #188, #70, .T. ) ;
#352 = DIRECTION ( 'NONE',  ( -0.000000000000000000, -0.000000000000000000, -1.000000000000000000 ) ) ;
#353 = ORIENTED_EDGE ( 'NONE', *, *, #60, .T. ) ;
#354 = AXIS2_PLACEMENT_3D ( 'NONE', #552, #93, #489 ) ;
#355 = SHAPE_DEFINITION_REPRESENTATION ( #705, #2 ) ;
#356 = CARTESIAN_POINT ( 'NONE',  ( -2.100000000000000089, 0.000000000000000000, 0.5999999999999999778 ) ) ;
#357 = CARTESIAN_POINT ( 'NONE',  ( 3.250000000000000000, 3.980102097228898231E-16, 0.2039999999999999869 ) ) ;
#358 = EDGE_CURVE ( 'NONE', #740, #483, #121, .T. ) ;
#359 = CARTESIAN_POINT ( 'NONE',  ( -1.585430387599602753, 1.872588475184223000, 0.000000000000000000 ) ) ;
#360 = DIRECTION ( 'NONE',  ( -1.000000000000000000, 0.000000000000000000, 0.000000000000000000 ) ) ;
#361 = ORIENTED_EDGE ( 'NONE', *, *, #722, .F. ) ;
#362 = CIRCLE ( 'NONE', #500, 1.250000000000000000 ) ;
#363 = DIRECTION ( 'NONE',  ( -1.000000000000000000, 0.000000000000000000, 0.000000000000000000 ) ) ;
#364 = CARTESIAN_POINT ( 'NONE',  ( -1.872588475184220780, -1.751430387599605565, 0.000000000000000000 ) ) ;
#365 = EDGE_LOOP ( 'NONE', ( #425, #659, #642, #490 ) ) ;
#366 = CARTESIAN_POINT ( 'NONE',  ( -1.872588475184220780, -1.751430387599605565, 0.2039999999999997926 ) ) ;
#367 = AXIS2_PLACEMENT_3D ( 'NONE', #346, #6, #58 ) ;
#368 = FACE_BOUND ( 'NONE', #396, .T. ) ;
#369 = ORIENTED_EDGE ( 'NONE', *, *, #507, .F. ) ;
#370 = DIRECTION ( 'NONE',  ( -1.000000000000000000, 0.000000000000000000, 0.000000000000000000 ) ) ;
#371 = FACE_OUTER_BOUND ( 'NONE', #416, .T. ) ;
#372 = EDGE_LOOP ( 'NONE', ( #319, #1, #101, #696 ) ) ;
#373 = EDGE_CURVE ( 'NONE', #566, #610, #697, .T. ) ;
#374 =( GEOMETRIC_REPRESENTATION_CONTEXT ( 3 ) GLOBAL_UNCERTAINTY_ASSIGNED_CONTEXT ( ( #634 ) ) GLOBAL_UNIT_ASSIGNED_CONTEXT ( ( #621, #648, #224 ) ) REPRESENTATION_CONTEXT ( 'NONE', 'WORKASPACE' ) );
#375 = CIRCLE ( 'NONE', #694, 2.100000000000000089 ) ;
#376 = DIRECTION ( 'NONE',  ( 0.000000000000000000, 0.000000000000000000, 1.000000000000000000 ) ) ;
#377 = DIRECTION ( 'NONE',  ( 0.000000000000000000, 0.000000000000000000, 1.000000000000000000 ) ) ;
#378 = EDGE_LOOP ( 'NONE', ( #82, #514 ) ) ;
#379 = DIRECTION ( 'NONE',  ( 0.000000000000000000, 0.000000000000000000, 1.000000000000000000 ) ) ;
#380 = ADVANCED_FACE ( 'NONE', ( #9 ), #174, .F. ) ;
#381 = DIMENSIONAL_EXPONENTS ( 1.000000000000000000, 0.000000000000000000, 0.000000000000000000, 0.000000000000000000, 0.000000000000000000, 0.000000000000000000, 0.000000000000000000 ) ;
#382 = CARTESIAN_POINT ( 'NONE',  ( -2.100000000000000089, 0.000000000000000000, 0.2999999999999999889 ) ) ;
#383 = ORIENTED_EDGE ( 'NONE', *, *, #269, .T. ) ;
#384 = EDGE_CURVE ( 'NONE', #180, #244, #415, .T. ) ;
#385 = LENGTH_MEASURE_WITH_UNIT ( LENGTH_MEASURE( 0.02539999999999999897 ), #167 );
#386 = CARTESIAN_POINT ( 'NONE',  ( -1.872588475184220780, -1.751430387599605565, 4.203999999999999737 ) ) ;
#387 = ORIENTED_EDGE ( 'NONE', *, *, #398, .T. ) ;
#388 = VECTOR ( 'NONE', #467, 39.37007874015748143 ) ;
#389 = CARTESIAN_POINT ( 'NONE',  ( 1.751430387599608007, -1.872588475184118417, 4.203999999999999737 ) ) ;
#390 = AXIS2_PLACEMENT_3D ( 'NONE', #32, #330, #271 ) ;
#391 = CARTESIAN_POINT ( 'NONE',  ( 1.585430387599557234, -1.872588475184118417, 0.000000000000000000 ) ) ;
#392 = EDGE_LOOP ( 'NONE', ( #630, #486, #218, #293 ) ) ;
#393 = CARTESIAN_POINT ( 'NONE',  ( 0.000000000000000000, 0.000000000000000000, 0.2039999999999999869 ) ) ;
#394 = CARTESIAN_POINT ( 'NONE',  ( 0.000000000000000000, 0.000000000000000000, 0.2039999999999999869 ) ) ;
#395 = AXIS2_PLACEMENT_3D ( 'NONE', #596, #478, #360 ) ;
#396 = EDGE_LOOP ( 'NONE', ( #278, #448 ) ) ;
#397 = PRESENTATION_LAYER_ASSIGNMENT (  '', '', ( #242 ) ) ;
#398 = EDGE_CURVE ( 'NONE', #53, #202, #559, .T. ) ;
#399 = CARTESIAN_POINT ( 'NONE',  ( -1.250000000000000000, 0.000000000000000000, 4.203999999999999737 ) ) ;
#400 = LINE ( 'NONE', #105, #704 ) ;
#401 = CARTESIAN_POINT ( 'NONE',  ( 2.149999999999999911, 2.632990618166809728E-16, 0.2039999999999999869 ) ) ;
#402 = ORIENTED_EDGE ( 'NONE', *, *, #666, .F. ) ;
#403 = ADVANCED_FACE ( 'NONE', ( #349 ), #128, .T. ) ;
#404 =( GEOMETRIC_REPRESENTATION_CONTEXT ( 3 ) GLOBAL_UNCERTAINTY_ASSIGNED_CONTEXT ( ( #54 ) ) GLOBAL_UNIT_ASSIGNED_CONTEXT ( ( #124, #8, #55 ) ) REPRESENTATION_CONTEXT ( 'NONE', 'WORKASPACE' ) );
#405 = DIRECTION ( 'NONE',  ( 1.000000000000000000, 0.000000000000000000, 0.000000000000000000 ) ) ;
#406 = CIRCLE ( 'NONE', #750, 1.450000000000000178 ) ;
#407 = ORIENTED_EDGE ( 'NONE', *, *, #507, .T. ) ;
#408 = DIRECTION ( 'NONE',  ( -0.000000000000000000, -0.000000000000000000, -1.000000000000000000 ) ) ;
#409 = EDGE_LOOP ( 'NONE', ( #239, #440, #615, #94 ) ) ;
#410 = CIRCLE ( 'NONE', #367, 2.100000000000000089 ) ;
#411 = DIRECTION ( 'NONE',  ( -1.000000000000000000, 0.000000000000000000, 0.000000000000000000 ) ) ;
#412 = EDGE_CURVE ( 'NONE', #570, #286, #568, .T. ) ;
#413 = ORIENTED_EDGE ( 'NONE', *, *, #729, .F. ) ;
#414 = LENGTH_MEASURE_WITH_UNIT ( LENGTH_MEASURE( 0.02539999999999999897 ), #63 );
#415 = LINE ( 'NONE', #176, #133 ) ;
#416 = EDGE_LOOP ( 'NONE', ( #546, #735, #328, #211 ) ) ;
#417 = APPLICATION_CONTEXT ( 'automotive_design' ) ;
#418 = CARTESIAN_POINT ( 'NONE',  ( -1.917430387599813768, 1.872588475184223000, 4.203999999999999737 ) ) ;
#419 = DIRECTION ( 'NONE',  ( 1.000000000000000000, 0.000000000000000000, 0.000000000000000000 ) ) ;
#420 = AXIS2_PLACEMENT_3D ( 'NONE', #28, #21, #24 ) ;
#421 = DIRECTION ( 'NONE',  ( 0.000000000000000000, 0.000000000000000000, 1.000000000000000000 ) ) ;
#422 = FACE_OUTER_BOUND ( 'NONE', #460, .T. ) ;
#423 = EDGE_CURVE ( 'NONE', #580, #75, #234, .T. ) ;
#424 = CARTESIAN_POINT ( 'NONE',  ( 2.100000000000000089, 2.571758278209441464E-16, 0.2999999999999999889 ) ) ;
#425 = ORIENTED_EDGE ( 'NONE', *, *, #36, .F. ) ;
#426 = ORIENTED_EDGE ( 'NONE', *, *, #189, .F. ) ;
#427 = DIRECTION ( 'NONE',  ( 0.000000000000000000, 0.000000000000000000, -1.000000000000000000 ) ) ;
#428 = FACE_BOUND ( 'NONE', #498, .T. ) ;
#429 = ORIENTED_EDGE ( 'NONE', *, *, #83, .T. ) ;
#430 = CARTESIAN_POINT ( 'NONE',  ( 0.000000000000000000, 0.000000000000000000, 4.203999999999999737 ) ) ;
#431 = AXIS2_PLACEMENT_3D ( 'NONE', #565, #162, #744 ) ;
#432 = CARTESIAN_POINT ( 'NONE',  ( 0.000000000000000000, 0.000000000000000000, 0.000000000000000000 ) ) ;
#433 = ORIENTED_EDGE ( 'NONE', *, *, #245, .T. ) ;
#434 = CARTESIAN_POINT ( 'NONE',  ( -1.706588475184078302, -1.751430387599605565, 4.203999999999999737 ) ) ;
#435 = FACE_BOUND ( 'NONE', #653, .T. ) ;
#436 = ORIENTED_EDGE ( 'NONE', *, *, #741, .F. ) ;
#437 = CIRCLE ( 'NONE', #112, 0.1660000000001055354 ) ;
#438 = CARTESIAN_POINT ( 'NONE',  ( 2.100000000000000089, 2.571758278209441464E-16, 0.5999999999999999778 ) ) ;
#439 = CARTESIAN_POINT ( 'NONE',  ( -2.149999999999999911, 0.000000000000000000, 0.2039999999999999869 ) ) ;
#440 = ORIENTED_EDGE ( 'NONE', *, *, #466, .T. ) ;
#441 = EDGE_CURVE ( 'NONE', #147, #456, #727, .T. ) ;
#442 = VECTOR ( 'NONE', #236, 39.37007874015748143 ) ;
#443 = CARTESIAN_POINT ( 'NONE',  ( -1.450000000000000178, 0.000000000000000000, 0.6000000000000001998 ) ) ;
#444 = CIRCLE ( 'NONE', #628, 3.250000000000000000 ) ;
#445 = FACE_BOUND ( 'NONE', #714, .T. ) ;
#446 = ORIENTED_EDGE ( 'NONE', *, *, #626, .T. ) ;
#447 =( LENGTH_UNIT ( ) NAMED_UNIT ( * ) SI_UNIT ( $, .METRE. ) );
#448 = ORIENTED_EDGE ( 'NONE', *, *, #479, .F. ) ;
#449 = DIRECTION ( 'NONE',  ( -1.000000000000000000, 0.000000000000000000, 0.000000000000000000 ) ) ;
#450 = CARTESIAN_POINT ( 'NONE',  ( 2.149999999999999911, 2.632990618166809728E-16, 0.2999999999999999889 ) ) ;
#451 = DIRECTION ( 'NONE',  ( 0.000000000000000000, 0.000000000000000000, -1.000000000000000000 ) ) ;
#452 = EDGE_LOOP ( 'NONE', ( #110, #502, #711, #758 ) ) ;
#453 = CYLINDRICAL_SURFACE ( 'NONE', #536, 0.1660000000000509124 ) ;
#454 = CYLINDRICAL_SURFACE ( 'NONE', #461, 0.1659999999999995368 ) ;
#455 = DIRECTION ( 'NONE',  ( -0.000000000000000000, -0.000000000000000000, -1.000000000000000000 ) ) ;
#456 = VERTEX_POINT ( 'NONE', #707 ) ;
#457 = ADVANCED_FACE ( 'NONE', ( #654 ), #179, .F. ) ;
#458 = CARTESIAN_POINT ( 'NONE',  ( -2.149999999999999911, 0.000000000000000000, 0.2999999999999999889 ) ) ;
#459 = CARTESIAN_POINT ( 'NONE',  ( -1.250000000000000000, 0.000000000000000000, 4.203999999999999737 ) ) ;
#460 = EDGE_LOOP ( 'NONE', ( #276, #332 ) ) ;
#461 = AXIS2_PLACEMENT_3D ( 'NONE', #209, #214, #755 ) ;
#462 = SURFACE_SIDE_STYLE ('',( #643 ) ) ;
#463 = CARTESIAN_POINT ( 'NONE',  ( 1.917430387599659003, -1.872588475184118417, 4.203999999999999737 ) ) ;
#464 = AXIS2_PLACEMENT_3D ( 'NONE', #76, #544, #370 ) ;
#465 = VERTEX_POINT ( 'NONE', #477 ) ;
#466 = EDGE_CURVE ( 'NONE', #297, #625, #11, .T. ) ;
#467 = DIRECTION ( 'NONE',  ( -0.000000000000000000, -0.000000000000000000, -1.000000000000000000 ) ) ;
#468 = ORIENTED_EDGE ( 'NONE', *, *, #666, .T. ) ;
#469 = AXIS2_PLACEMENT_3D ( 'NONE', #517, #274, #513 ) ;
#470 = DIRECTION ( 'NONE',  ( -0.000000000000000000, -0.000000000000000000, -1.000000000000000000 ) ) ;
#471 = DIRECTION ( 'NONE',  ( -0.000000000000000000, -0.000000000000000000, -1.000000000000000000 ) ) ;
#472 = APPLICATION_PROTOCOL_DEFINITION ( 'draft international standard', 'automotive_design', 1998, #331 ) ;
#473 = DIRECTION ( 'NONE',  ( -0.000000000000000000, -0.000000000000000000, -1.000000000000000000 ) ) ;
#474 = ORIENTED_EDGE ( 'NONE', *, *, #543, .T. ) ;
#475 = AXIS2_PLACEMENT_3D ( 'NONE', #430, #660, #138 ) ;
#476 = PRODUCT_CONTEXT ( 'NONE', #331, 'mechanical' ) ;
#477 = CARTESIAN_POINT ( 'NONE',  ( 2.100000000000000089, 2.571758278209441464E-16, 0.5999999999999999778 ) ) ;
#478 = DIRECTION ( 'NONE',  ( 0.000000000000000000, 0.000000000000000000, 1.000000000000000000 ) ) ;
#479 = EDGE_CURVE ( 'NONE', #740, #180, #743, .T. ) ;
#480 = CIRCLE ( 'NONE', #420, 0.1660000000000509124 ) ;
#481 = FACE_OUTER_BOUND ( 'NONE', #392, .T. ) ;
#482 = CARTESIAN_POINT ( 'NONE',  ( 0.000000000000000000, 0.000000000000000000, 0.5999999999999999778 ) ) ;
#483 = VERTEX_POINT ( 'NONE', #731 ) ;
#484 = FACE_BOUND ( 'NONE', #338, .T. ) ;
#485 = FACE_OUTER_BOUND ( 'NONE', #365, .T. ) ;
#486 = ORIENTED_EDGE ( 'NONE', *, *, #533, .T. ) ;
#487 = EDGE_CURVE ( 'NONE', #655, #350, #316, .T. ) ;
#488 = DIRECTION ( 'NONE',  ( 0.000000000000000000, 0.000000000000000000, -1.000000000000000000 ) ) ;
#489 = DIRECTION ( 'NONE',  ( 1.000000000000000000, 0.000000000000000000, 0.000000000000000000 ) ) ;
#490 = ORIENTED_EDGE ( 'NONE', *, *, #722, .T. ) ;
#491 = CIRCLE ( 'NONE', #354, 0.1659999999999995368 ) ;
#492 = DIRECTION ( 'NONE',  ( -1.000000000000000000, 0.000000000000000000, 0.000000000000000000 ) ) ;
#493 = CIRCLE ( 'NONE', #229, 0.1660000000000509124 ) ;
#494 = DIRECTION ( 'NONE',  ( 0.000000000000000000, 0.000000000000000000, -1.000000000000000000 ) ) ;
#495 = ORIENTED_EDGE ( 'NONE', *, *, #533, .F. ) ;
#496 = DIRECTION ( 'NONE',  ( -1.000000000000000000, 0.000000000000000000, 0.000000000000000000 ) ) ;
#497 = FACE_OUTER_BOUND ( 'NONE', #720, .T. ) ;
#498 = EDGE_LOOP ( 'NONE', ( #585, #155 ) ) ;
#499 = EDGE_CURVE ( 'NONE', #465, #576, #199, .T. ) ;
#500 = AXIS2_PLACEMENT_3D ( 'NONE', #510, #30, #104 ) ;
#501 = CARTESIAN_POINT ( 'NONE',  ( -1.751430387599708371, 1.872588475184223000, 0.2039999999999997926 ) ) ;
#502 = ORIENTED_EDGE ( 'NONE', *, *, #51, .T. ) ;
#503 = DIRECTION ( 'NONE',  ( -0.000000000000000000, -0.000000000000000000, -1.000000000000000000 ) ) ;
#504 = DIRECTION ( 'NONE',  ( 1.000000000000000000, 0.000000000000000000, 0.000000000000000000 ) ) ;
#505 = ORIENTED_EDGE ( 'NONE', *, *, #253, .F. ) ;
#506 = CARTESIAN_POINT ( 'NONE',  ( -1.706588475184078302, -1.751430387599605565, 0.2039999999999997926 ) ) ;
#507 = EDGE_CURVE ( 'NONE', #168, #610, #511, .T. ) ;
#508 = CYLINDRICAL_SURFACE ( 'NONE', #116, 0.1660000000001055354 ) ;
#509 = ORIENTED_EDGE ( 'NONE', *, *, #258, .T. ) ;
#510 = CARTESIAN_POINT ( 'NONE',  ( 0.000000000000000000, 0.000000000000000000, 0.000000000000000000 ) ) ;
#511 = CIRCLE ( 'NONE', #736, 3.250000000000000000 ) ;
#512 = ADVANCED_FACE ( 'NONE', ( #91, #484 ), #148, .F. ) ;
#513 = DIRECTION ( 'NONE',  ( -1.000000000000000000, 0.000000000000000000, 0.000000000000000000 ) ) ;
#514 = ORIENTED_EDGE ( 'NONE', *, *, #102, .F. ) ;
#515 = CARTESIAN_POINT ( 'NONE',  ( 0.000000000000000000, 0.000000000000000000, 4.203999999999999737 ) ) ;
#516 = CARTESIAN_POINT ( 'NONE',  ( -1.751430387599708371, 1.872588475184223000, 0.000000000000000000 ) ) ;
#517 = CARTESIAN_POINT ( 'NONE',  ( -1.872588475184220780, -1.751430387599605565, 0.000000000000000000 ) ) ;
#518 = ORIENTED_EDGE ( 'NONE', *, *, #423, .T. ) ;
#519 = CARTESIAN_POINT ( 'NONE',  ( 0.000000000000000000, 0.000000000000000000, 0.2039999999999999869 ) ) ;
#520 = EDGE_LOOP ( 'NONE', ( #255, #25, #407, #639 ) ) ;
#521 = AXIS2_PLACEMENT_3D ( 'NONE', #67, #238, #289 ) ;
#522 = ADVANCED_FACE ( 'NONE', ( #80 ), #241, .T. ) ;
#523 = DIRECTION ( 'NONE',  ( 0.000000000000000000, 0.000000000000000000, 1.000000000000000000 ) ) ;
#524 = ORIENTED_EDGE ( 'NONE', *, *, #292, .T. ) ;
#525 = DIRECTION ( 'NONE',  ( 0.000000000000000000, 0.000000000000000000, 1.000000000000000000 ) ) ;
#526 = LINE ( 'NONE', #418, #300 ) ;
#527 = VERTEX_POINT ( 'NONE', #551 ) ;
#528 = CIRCLE ( 'NONE', #40, 0.1659999999999995368 ) ;
#529 = EDGE_CURVE ( 'NONE', #244, #483, #35, .T. ) ;
#530 = CARTESIAN_POINT ( 'NONE',  ( -3.250000000000000000, 0.000000000000000000, 0.2039999999999999869 ) ) ;
#531 = LINE ( 'NONE', #7, #266 ) ;
#532 = CARTESIAN_POINT ( 'NONE',  ( 0.000000000000000000, 0.000000000000000000, 0.000000000000000000 ) ) ;
#533 = EDGE_CURVE ( 'NONE', #655, #10, #72, .T. ) ;
#534 = AXIS2_PLACEMENT_3D ( 'NONE', #123, #303, #732 ) ;
#535 = CARTESIAN_POINT ( 'NONE',  ( 0.000000000000000000, 0.000000000000000000, 4.203999999999999737 ) ) ;
#536 = AXIS2_PLACEMENT_3D ( 'NONE', #389, #50, #620 ) ;
#537 = CARTESIAN_POINT ( 'NONE',  ( 0.000000000000000000, 0.000000000000000000, 0.2039999999999999869 ) ) ;
#538 = CARTESIAN_POINT ( 'NONE',  ( -1.751430387599708371, 1.872588475184223000, 0.2039999999999997926 ) ) ;
#539 = CIRCLE ( 'NONE', #90, 0.1659999999999995368 ) ;
#540 = CIRCLE ( 'NONE', #208, 1.450000000000000178 ) ;
#541 = CARTESIAN_POINT ( 'NONE',  ( -2.100000000000000089, 0.000000000000000000, 0.5999999999999999778 ) ) ;
#542 = CARTESIAN_POINT ( 'NONE',  ( -1.585430387599602753, 1.872588475184223000, 4.203999999999999737 ) ) ;
#543 = EDGE_CURVE ( 'NONE', #188, #724, #406, .T. ) ;
#544 = DIRECTION ( 'NONE',  ( -0.000000000000000000, -0.000000000000000000, -1.000000000000000000 ) ) ;
#545 = CARTESIAN_POINT ( 'NONE',  ( 0.000000000000000000, 0.000000000000000000, 0.2039999999999999869 ) ) ;
#546 = ORIENTED_EDGE ( 'NONE', *, *, #712, .F. ) ;
#547 = DIRECTION ( 'NONE',  ( -1.000000000000000000, 0.000000000000000000, -0.000000000000000000 ) ) ;
#548 = DIRECTION ( 'NONE',  ( -1.000000000000000000, 0.000000000000000000, 0.000000000000000000 ) ) ;
#549 = VERTEX_POINT ( 'NONE', #717 ) ;
#550 = CIRCLE ( 'NONE', #115, 0.1660000000001424225 ) ;
#551 = CARTESIAN_POINT ( 'NONE',  ( -1.917430387599813768, 1.872588475184223000, 0.000000000000000000 ) ) ;
#552 = CARTESIAN_POINT ( 'NONE',  ( 1.872588475184120416, 1.751430387599710814, 0.2039999999999997926 ) ) ;
#553 = ORIENTED_EDGE ( 'NONE', *, *, #672, .F. ) ;
#554 = DIRECTION ( 'NONE',  ( 0.000000000000000000, 0.000000000000000000, -1.000000000000000000 ) ) ;
#555 = CARTESIAN_POINT ( 'NONE',  ( 1.917430387599659003, -1.872588475184118417, 0.2039999999999997926 ) ) ;
#556 = CARTESIAN_POINT ( 'NONE',  ( 1.872588475184120416, 1.751430387599710814, 0.000000000000000000 ) ) ;
#557 = ADVANCED_FACE ( 'NONE', ( #481 ), #196, .F. ) ;
#558 = ORIENTED_EDGE ( 'NONE', *, *, #499, .T. ) ;
#559 = CIRCLE ( 'NONE', #715, 1.250000000000000000 ) ;
#560 = CIRCLE ( 'NONE', #534, 2.100000000000000089 ) ;
#561 = CARTESIAN_POINT ( 'NONE',  ( 2.038588475184119897, 1.751430387599710814, 0.000000000000000000 ) ) ;
#562 = CARTESIAN_POINT ( 'NONE',  ( 1.872588475184120416, 1.751430387599710814, 0.000000000000000000 ) ) ;
#563 = EDGE_LOOP ( 'NONE', ( #187, #265, #518, #753 ) ) ;
#564 =( GEOMETRIC_REPRESENTATION_CONTEXT ( 3 ) GLOBAL_UNCERTAINTY_ASSIGNED_CONTEXT ( ( #207 ) ) GLOBAL_UNIT_ASSIGNED_CONTEXT ( ( #43, #624, #569 ) ) REPRESENTATION_CONTEXT ( 'NONE', 'WORKASPACE' ) );
#565 = CARTESIAN_POINT ( 'NONE',  ( 0.000000000000000000, 0.000000000000000000, 4.203999999999999737 ) ) ;
#566 = VERTEX_POINT ( 'NONE', #23 ) ;
#567 = LINE ( 'NONE', #399, #295 ) ;
#568 = CIRCLE ( 'NONE', #521, 2.149999999999999911 ) ;
#569 =( NAMED_UNIT ( * ) SI_UNIT ( $, .STERADIAN. ) SOLID_ANGLE_UNIT ( ) );
#570 = VERTEX_POINT ( 'NONE', #193 ) ;
#571 = AXIS2_PLACEMENT_3D ( 'NONE', #291, #408, #12 ) ;
#572 = VECTOR ( 'NONE', #171, 39.37007874015748143 ) ;
#573 = FACE_OUTER_BOUND ( 'NONE', #151, .T. ) ;
#574 = CIRCLE ( 'NONE', #49, 2.149999999999999911 ) ;
#575 = ADVANCED_FACE ( 'NONE', ( #713 ), #256, .F. ) ;
#576 = VERTEX_POINT ( 'NONE', #424 ) ;
#577 = CARTESIAN_POINT ( 'NONE',  ( -2.038588475184363258, -1.751430387599605565, 4.203999999999999737 ) ) ;
#578 = ADVANCED_FACE ( 'NONE', ( #657 ), #604, .T. ) ;
#579 = CIRCLE ( 'NONE', #205, 0.1660000000001055354 ) ;
#580 = VERTEX_POINT ( 'NONE', #541 ) ;
#581 = ORIENTED_EDGE ( 'NONE', *, *, #240, .F. ) ;
#582 = AXIS2_PLACEMENT_3D ( 'NONE', #532, #695, #595 ) ;
#583 = CARTESIAN_POINT ( 'NONE',  ( 0.000000000000000000, 0.000000000000000000, 0.000000000000000000 ) ) ;
#584 = CARTESIAN_POINT ( 'NONE',  ( 1.450000000000000178, 1.775737858763662163E-16, 4.203999999999999737 ) ) ;
#585 = ORIENTED_EDGE ( 'NONE', *, *, #170, .F. ) ;
#586 = PRESENTATION_LAYER_ASSIGNMENT (  '', '', ( #48 ) ) ;
#587 = CARTESIAN_POINT ( 'NONE',  ( 0.000000000000000000, 0.000000000000000000, 4.203999999999999737 ) ) ;
#588 = VERTEX_POINT ( 'NONE', #721 ) ;
#589 = ADVANCED_FACE ( 'NONE', ( #302 ), #601, .F. ) ;
#590 = FILL_AREA_STYLE ('',( #233 ) ) ;
#591 = DIRECTION ( 'NONE',  ( -1.000000000000000000, 0.000000000000000000, 0.000000000000000000 ) ) ;
#592 = DIRECTION ( 'NONE',  ( 1.000000000000000000, 0.000000000000000000, -0.000000000000000000 ) ) ;
#593 = EDGE_CURVE ( 'NONE', #310, #527, #437, .T. ) ;
#594 = SURFACE_STYLE_USAGE ( .BOTH. , #462 ) ;
#595 = DIRECTION ( 'NONE',  ( -1.000000000000000000, 0.000000000000000000, 0.000000000000000000 ) ) ;
#596 = CARTESIAN_POINT ( 'NONE',  ( 0.000000000000000000, 0.000000000000000000, 0.2999999999999999889 ) ) ;
#597 = CARTESIAN_POINT ( 'NONE',  ( 1.751430387599608007, -1.872588475184118417, 0.2039999999999997926 ) ) ;
#598 = CIRCLE ( 'NONE', #718, 0.1660000000001055354 ) ;
#599 = FACE_BOUND ( 'NONE', #665, .T. ) ;
#600 = EDGE_LOOP ( 'NONE', ( #29, #387 ) ) ;
#601 = CYLINDRICAL_SURFACE ( 'NONE', #464, 0.1659999999999995368 ) ;
#602 = FACE_OUTER_BOUND ( 'NONE', #342, .T. ) ;
#603 = EDGE_CURVE ( 'NONE', #75, #576, #375, .T. ) ;
#604 = CYLINDRICAL_SURFACE ( 'NONE', #307, 2.100000000000000089 ) ;
#605 = DIRECTION ( 'NONE',  ( 0.000000000000000000, 0.000000000000000000, 1.000000000000000000 ) ) ;
#606 = EDGE_LOOP ( 'NONE', ( #700, #509, #676, #158 ) ) ;
#607 = DIRECTION ( 'NONE',  ( 0.000000000000000000, 0.000000000000000000, 1.000000000000000000 ) ) ;
#608 = CARTESIAN_POINT ( 'NONE',  ( 1.250000000000000000, 1.530808498934191571E-16, 0.000000000000000000 ) ) ;
#609 = CIRCLE ( 'NONE', #321, 0.1660000000001424225 ) ;
#610 = VERTEX_POINT ( 'NONE', #326 ) ;
#611 = AXIS2_PLACEMENT_3D ( 'NONE', #393, #503, #635 ) ;
#612 = EDGE_CURVE ( 'NONE', #57, #566, #178, .T. ) ;
#613 = DIRECTION ( 'NONE',  ( -0.000000000000000000, -0.000000000000000000, -1.000000000000000000 ) ) ;
#614 = CYLINDRICAL_SURFACE ( 'NONE', #103, 2.149999999999999911 ) ;
#615 = ORIENTED_EDGE ( 'NONE', *, *, #5, .T. ) ;
#616 = ADVANCED_FACE ( 'NONE', ( #320 ), #453, .F. ) ;
#617 = DIRECTION ( 'NONE',  ( -1.000000000000000000, 0.000000000000000000, 0.000000000000000000 ) ) ;
#618 = DIRECTION ( 'NONE',  ( -0.000000000000000000, -0.000000000000000000, -1.000000000000000000 ) ) ;
#619 = ORIENTED_EDGE ( 'NONE', *, *, #348, .T. ) ;
#620 = DIRECTION ( 'NONE',  ( -1.000000000000000000, 0.000000000000000000, 0.000000000000000000 ) ) ;
#621 =( CONVERSION_BASED_UNIT ( 'INCH', #385 ) LENGTH_UNIT ( ) NAMED_UNIT ( #315 ) );
#622 = ORIENTED_EDGE ( 'NONE', *, *, #593, .T. ) ;
#623 = FACE_BOUND ( 'NONE', #600, .T. ) ;
#624 =( NAMED_UNIT ( * ) PLANE_ANGLE_UNIT ( ) SI_UNIT ( $, .RADIAN. ) );
#625 = VERTEX_POINT ( 'NONE', #339 ) ;
#626 = EDGE_CURVE ( 'NONE', #202, #456, #567, .T. ) ;
#627 = DIRECTION ( 'NONE',  ( -1.000000000000000000, 0.000000000000000000, 0.000000000000000000 ) ) ;
#628 = AXIS2_PLACEMENT_3D ( 'NONE', #394, #638, #113 ) ;
#629 = SURFACE_STYLE_FILL_AREA ( #45 ) ;
#630 = ORIENTED_EDGE ( 'NONE', *, *, #487, .F. ) ;
#631 = FACE_OUTER_BOUND ( 'NONE', #409, .T. ) ;
#632 = CARTESIAN_POINT ( 'NONE',  ( -2.149999999999999911, 0.000000000000000000, 0.2999999999999999889 ) ) ;
#633 = EDGE_LOOP ( 'NONE', ( #436, #553, #446, #749 ) ) ;
#634 = UNCERTAINTY_MEASURE_WITH_UNIT (LENGTH_MEASURE( 1.000000000000000082E-05 ), #621, 'distance_accuracy_value', 'NONE');
#635 = DIRECTION ( 'NONE',  ( -1.000000000000000000, 0.000000000000000000, 0.000000000000000000 ) ) ;
#636 = VECTOR ( 'NONE', #613, 39.37007874015748143 ) ;
#637 = CARTESIAN_POINT ( 'NONE',  ( -1.872588475184220780, -1.751430387599605565, 0.2039999999999997926 ) ) ;
#638 = DIRECTION ( 'NONE',  ( -0.000000000000000000, -0.000000000000000000, -1.000000000000000000 ) ) ;
#639 = ORIENTED_EDGE ( 'NONE', *, *, #373, .F. ) ;
#640 = DIRECTION ( 'NONE',  ( 0.000000000000000000, 0.000000000000000000, 1.000000000000000000 ) ) ;
#641 = MECHANICAL_DESIGN_GEOMETRIC_PRESENTATION_REPRESENTATION (  '', ( #242 ), #564 ) ;
#642 = ORIENTED_EDGE ( 'NONE', *, *, #373, .T. ) ;
#643 = SURFACE_STYLE_FILL_AREA ( #590 ) ;
#644 = CARTESIAN_POINT ( 'NONE',  ( 0.000000000000000000, 0.000000000000000000, 4.203999999999999737 ) ) ;
#645 = ORIENTED_EDGE ( 'NONE', *, *, #543, .F. ) ;
#646 = EDGE_CURVE ( 'NONE', #286, #89, #41, .T. ) ;
#647 = MECHANICAL_DESIGN_GEOMETRIC_PRESENTATION_REPRESENTATION (  '', ( #48 ), #404 ) ;
#648 =( NAMED_UNIT ( * ) PLANE_ANGLE_UNIT ( ) SI_UNIT ( $, .RADIAN. ) );
#649 = DIRECTION ( 'NONE',  ( -1.000000000000000000, 0.000000000000000000, 0.000000000000000000 ) ) ;
#650 = DIRECTION ( 'NONE',  ( 0.000000000000000000, 0.000000000000000000, 1.000000000000000000 ) ) ;
#651 = EDGE_CURVE ( 'NONE', #456, #147, #362, .T. ) ;
#652 = DIRECTION ( 'NONE',  ( 0.000000000000000000, 0.000000000000000000, -1.000000000000000000 ) ) ;
#653 = EDGE_LOOP ( 'NONE', ( #166, #163 ) ) ;
#654 = FACE_OUTER_BOUND ( 'NONE', #259, .T. ) ;
#655 = VERTEX_POINT ( 'NONE', #506 ) ;
#656 = ADVANCED_FACE ( 'NONE', ( #573 ), #261, .T. ) ;
#657 = FACE_OUTER_BOUND ( 'NONE', #225, .T. ) ;
#658 = VECTOR ( 'NONE', #322, 39.37007874015748143 ) ;
#659 = ORIENTED_EDGE ( 'NONE', *, *, #612, .T. ) ;
#660 = DIRECTION ( 'NONE',  ( -0.000000000000000000, -0.000000000000000000, -1.000000000000000000 ) ) ;
#661 = CARTESIAN_POINT ( 'NONE',  ( -2.038588475184363258, -1.751430387599605565, 0.000000000000000000 ) ) ;
#662 = VERTEX_POINT ( 'NONE', #561 ) ;
#663 = DIRECTION ( 'NONE',  ( -1.000000000000000000, 0.000000000000000000, 0.000000000000000000 ) ) ;
#664 = CYLINDRICAL_SURFACE ( 'NONE', #154, 1.250000000000000000 ) ;
#665 = EDGE_LOOP ( 'NONE', ( #132, #645 ) ) ;
#666 = EDGE_CURVE ( 'NONE', #286, #570, #574, .T. ) ;
#667 = CARTESIAN_POINT ( 'NONE',  ( 0.000000000000000000, 0.000000000000000000, 0.000000000000000000 ) ) ;
#668 = FACE_BOUND ( 'NONE', #251, .T. ) ;
#669 = VECTOR ( 'NONE', #296, 39.37007874015748143 ) ;
#670 = VERTEX_POINT ( 'NONE', #751 ) ;
#671 = AXIS2_PLACEMENT_3D ( 'NONE', #726, #488, #492 ) ;
#672 = EDGE_CURVE ( 'NONE', #202, #53, #96, .T. ) ;
#673 = DIRECTION ( 'NONE',  ( 0.000000000000000000, 0.000000000000000000, 1.000000000000000000 ) ) ;
#674 = FACE_OUTER_BOUND ( 'NONE', #223, .T. ) ;
#675 = DIRECTION ( 'NONE',  ( -0.000000000000000000, -0.000000000000000000, -1.000000000000000000 ) ) ;
#676 = ORIENTED_EDGE ( 'NONE', *, *, #189, .T. ) ;
#677 = VECTOR ( 'NONE', #455, 39.37007874015748143 ) ;
#678 = DIRECTION ( 'NONE',  ( -0.000000000000000000, -0.000000000000000000, -1.000000000000000000 ) ) ;
#679 = DIRECTION ( 'NONE',  ( -1.000000000000000000, 0.000000000000000000, 0.000000000000000000 ) ) ;
#680 = ORIENTED_EDGE ( 'NONE', *, *, #626, .F. ) ;
#681 = EDGE_CURVE ( 'NONE', #465, #580, #560, .T. ) ;
#682 = CARTESIAN_POINT ( 'NONE',  ( 2.038588475184119897, 1.751430387599710814, 4.203999999999999737 ) ) ;
#683 = ORIENTED_EDGE ( 'NONE', *, *, #423, .F. ) ;
#684 = CARTESIAN_POINT ( 'NONE',  ( 0.000000000000000000, 0.000000000000000000, 0.000000000000000000 ) ) ;
#685 = PRESENTATION_STYLE_ASSIGNMENT (( #691 ) ) ;
#686 = ORIENTED_EDGE ( 'NONE', *, *, #487, .T. ) ;
#687 = AXIS2_PLACEMENT_3D ( 'NONE', #177, #650, #592 ) ;
#688 = DIRECTION ( 'NONE',  ( -1.000000000000000000, 0.000000000000000000, 0.000000000000000000 ) ) ;
#689 = EDGE_LOOP ( 'NONE', ( #433, #305, #345, #231 ) ) ;
#690 = DIRECTION ( 'NONE',  ( -0.000000000000000000, -0.000000000000000000, -1.000000000000000000 ) ) ;
#691 = SURFACE_STYLE_USAGE ( .BOTH. , #106 ) ;
#692 = EDGE_LOOP ( 'NONE', ( #283, #314 ) ) ;
#693 = ADVANCED_FACE ( 'NONE', ( #674, #623 ), #52, .T. ) ;
#694 = AXIS2_PLACEMENT_3D ( 'NONE', #249, #607, #84 ) ;
#695 = DIRECTION ( 'NONE',  ( -0.000000000000000000, -0.000000000000000000, -1.000000000000000000 ) ) ;
#696 = ORIENTED_EDGE ( 'NONE', *, *, #529, .T. ) ;
#697 = LINE ( 'NONE', #530, #669 ) ;
#698 = AXIS2_PLACEMENT_3D ( 'NONE', #482, #675, #201 ) ;
#699 = AXIS2_PLACEMENT_3D ( 'NONE', #535, #160, #109 ) ;
#700 = ORIENTED_EDGE ( 'NONE', *, *, #92, .T. ) ;
#701 = DIRECTION ( 'NONE',  ( -0.000000000000000000, -0.000000000000000000, -1.000000000000000000 ) ) ;
#702 = EDGE_CURVE ( 'NONE', #724, #188, #306, .T. ) ;
#703 = ORIENTED_EDGE ( 'NONE', *, *, #92, .F. ) ;
#704 = VECTOR ( 'NONE', #678, 39.37007874015748143 ) ;
#705 = PRODUCT_DEFINITION_SHAPE ( 'NONE', 'NONE',  #737 ) ;
#706 = AXIS2_PLACEMENT_3D ( 'NONE', #20, #190, #663 ) ;
#707 = CARTESIAN_POINT ( 'NONE',  ( -1.250000000000000000, 0.000000000000000000, 0.000000000000000000 ) ) ;
#708 = DIRECTION ( 'NONE',  ( 0.000000000000000000, 0.000000000000000000, 1.000000000000000000 ) ) ;
#709 = ADVANCED_FACE ( 'NONE', ( #631 ), #454, .F. ) ;
#710 = CARTESIAN_POINT ( 'NONE',  ( 1.751430387599608007, -1.872588475184118417, 4.203999999999999737 ) ) ;
#711 = ORIENTED_EDGE ( 'NONE', *, *, #311, .T. ) ;
#712 = EDGE_CURVE ( 'NONE', #570, #198, #263, .T. ) ;
#713 = FACE_OUTER_BOUND ( 'NONE', #22, .T. ) ;
#714 = EDGE_LOOP ( 'NONE', ( #413, #495 ) ) ;
#715 = AXIS2_PLACEMENT_3D ( 'NONE', #644, #118, #649 ) ;
#716 = ORIENTED_EDGE ( 'NONE', *, *, #287, .T. ) ;
#717 = CARTESIAN_POINT ( 'NONE',  ( -1.450000000000000178, 0.000000000000000000, 4.203999999999999737 ) ) ;
#718 = AXIS2_PLACEMENT_3D ( 'NONE', #516, #219, #317 ) ;
#719 = FACE_BOUND ( 'NONE', #378, .T. ) ;
#720 = EDGE_LOOP ( 'NONE', ( #581, #227 ) ) ;
#721 = CARTESIAN_POINT ( 'NONE',  ( 1.450000000000000178, 1.775737858763662163E-16, 4.203999999999999737 ) ) ;
#722 = EDGE_CURVE ( 'NONE', #610, #168, #284, .T. ) ;
#723 = FACE_BOUND ( 'NONE', #692, .T. ) ;
#724 = VERTEX_POINT ( 'NONE', #443 ) ;
#725 = CIRCLE ( 'NONE', #699, 1.450000000000000178 ) ;
#726 = CARTESIAN_POINT ( 'NONE',  ( 1.751430387599608007, -1.872588475184118417, 0.000000000000000000 ) ) ;
#727 = CIRCLE ( 'NONE', #582, 1.250000000000000000 ) ;
#728 = DIRECTION ( 'NONE',  ( 0.000000000000000000, 0.000000000000000000, -1.000000000000000000 ) ) ;
#729 = EDGE_CURVE ( 'NONE', #10, #655, #609, .T. ) ;
#730 = ORIENTED_EDGE ( 'NONE', *, *, #412, .F. ) ;
#731 = CARTESIAN_POINT ( 'NONE',  ( 1.917430387599659003, -1.872588475184118417, 0.000000000000000000 ) ) ;
#732 = DIRECTION ( 'NONE',  ( -1.000000000000000000, 0.000000000000000000, 0.000000000000000000 ) ) ;
#733 = DIRECTION ( 'NONE',  ( -0.000000000000000000, -0.000000000000000000, -1.000000000000000000 ) ) ;
#734 = COLOUR_RGB ( '',0.7921568627450980005, 0.8196078431372548767, 0.9333333333333333481 ) ;
#735 = ORIENTED_EDGE ( 'NONE', *, *, #412, .T. ) ;
#736 = AXIS2_PLACEMENT_3D ( 'NONE', #667, #673, #496 ) ;
#737 = PRODUCT_DEFINITION ( 'UNKNOWN', '', #335, #228 ) ;
#738 = DIRECTION ( 'NONE',  ( -1.000000000000000000, 0.000000000000000000, 0.000000000000000000 ) ) ;
#739 = CARTESIAN_POINT ( 'NONE',  ( 0.000000000000000000, 0.000000000000000000, 0.2999999999999999889 ) ) ;
#740 = VERTEX_POINT ( 'NONE', #555 ) ;
#741 = EDGE_CURVE ( 'NONE', #53, #147, #400, .T. ) ;
#742 = COLOUR_RGB ( '',0.7921568627450980005, 0.8196078431372548767, 0.9333333333333333481 ) ;
#743 = CIRCLE ( 'NONE', #746, 0.1660000000000509124 ) ;
#744 = DIRECTION ( 'NONE',  ( -1.000000000000000000, 0.000000000000000000, 0.000000000000000000 ) ) ;
#745 = EDGE_LOOP ( 'NONE', ( #114, #426 ) ) ;
#746 = AXIS2_PLACEMENT_3D ( 'NONE', #597, #640, #299 ) ;
#747 = CARTESIAN_POINT ( 'NONE',  ( 0.000000000000000000, 0.000000000000000000, 0.2999999999999999889 ) ) ;
#748 = CARTESIAN_POINT ( 'NONE',  ( -1.751430387599708371, 1.872588475184223000, 4.203999999999999737 ) ) ;
#749 = ORIENTED_EDGE ( 'NONE', *, *, #651, .T. ) ;
#750 = AXIS2_PLACEMENT_3D ( 'NONE', #152, #379, #617 ) ;
#751 = CARTESIAN_POINT ( 'NONE',  ( -1.585430387599602753, 1.872588475184223000, 0.2039999999999997926 ) ) ;
#752 = DIRECTION ( 'NONE',  ( 0.000000000000000000, 0.000000000000000000, -1.000000000000000000 ) ) ;
#753 = ORIENTED_EDGE ( 'NONE', *, *, #603, .T. ) ;
#754 = CIRCLE ( 'NONE', #395, 2.100000000000000089 ) ;
#755 = DIRECTION ( 'NONE',  ( -1.000000000000000000, 0.000000000000000000, 0.000000000000000000 ) ) ;
#756 = ORIENTED_EDGE ( 'NONE', *, *, #398, .F. ) ;
#757 = EDGE_CURVE ( 'NONE', #527, #310, #598, .T. ) ;
#758 = ORIENTED_EDGE ( 'NONE', *, *, #757, .T. ) ;
#759 = CARTESIAN_POINT ( 'NONE',  ( 1.751430387599608007, -1.872588475184118417, 0.2039999999999997926 ) ) ;
ENDSEC;
END-ISO-10303-21;
