ISO-10303-21;
HEADER;
FILE_DESCRIPTION (( 'STEP AP214' ),
    '1' );
FILE_NAME ('Flagen_adpater_R_2.STEP',
    '2024-01-19T22:18:41',
    ( '' ),
    ( '' ),
    'SwSTEP 2.0',
    'SolidWorks 2020',
    '' );
FILE_SCHEMA (( 'AUTOMOTIVE_DESIGN' ));
ENDSEC;

DATA;
#1 = EDGE_CURVE ( 'NONE', #83, #107, #194, .T. ) ;
#2 = CARTESIAN_POINT ( 'NONE',  ( 2.973974539178148024, -1.866389748023749462, 0.5000000000000000000 ) ) ;
#3 = ORIENTED_EDGE ( 'NONE', *, *, #1, .F. ) ;
#4 = AXIS2_PLACEMENT_3D ( 'NONE', #430, #388, #311 ) ;
#5 = LINE ( 'NONE', #117, #93 ) ;
#6 = CARTESIAN_POINT ( 'NONE',  ( 3.710236220157480336, 0.000000000000000000, 0.5000000000000000000 ) ) ;
#7 = EDGE_CURVE ( 'NONE', #403, #107, #267, .T. ) ;
#8 = CARTESIAN_POINT ( 'NONE',  ( 0.000000000000000000, 0.000000000000000000, 0.000000000000000000 ) ) ;
#9 = AXIS2_PLACEMENT_3D ( 'NONE', #22, #406, #249 ) ;
#10 = EDGE_CURVE ( 'NONE', #225, #222, #453, .T. ) ;
#11 =( NAMED_UNIT ( * ) PLANE_ANGLE_UNIT ( ) SI_UNIT ( $, .RADIAN. ) );
#12 = DIRECTION ( 'NONE',  ( 1.000000000000000000, 0.000000000000000000, 0.000000000000000000 ) ) ;
#13 = EDGE_LOOP ( 'NONE', ( #105, #299, #434, #219 ) ) ;
#14 = EDGE_CURVE ( 'NONE', #179, #149, #5, .T. ) ;
#15 = CARTESIAN_POINT ( 'NONE',  ( 3.395275590236220165, 2.089436863904151172E-15, 4.234364390179608284E-15 ) ) ;
#16 = CARTESIAN_POINT ( 'NONE',  ( 3.450196850393701276, -0.5905511811023621549, 0.000000000000000000 ) ) ;
#17 = VECTOR ( 'NONE', #26, 39.37007874015748143 ) ;
#18 = CARTESIAN_POINT ( 'NONE',  ( 3.210236220157480336, 0.9198822130789238161, 0.5000000000000000000 ) ) ;
#19 = ORIENTED_EDGE ( 'NONE', *, *, #259, .T. ) ;
#20 = DIRECTION ( 'NONE',  ( -0.5315659670063763720, -0.8470168963607372925, 0.000000000000000000 ) ) ;
#21 = ORIENTED_EDGE ( 'NONE', *, *, #37, .F. ) ;
#22 = CARTESIAN_POINT ( 'NONE',  ( 3.541732283464567033, -0.5905511811023621549, 0.5000000000000000000 ) ) ;
#23 = ORIENTED_EDGE ( 'NONE', *, *, #14, .T. ) ;
#24 = VECTOR ( 'NONE', #163, 39.37007874015748143 ) ;
#25 = COLOUR_RGB ( '',0.7921568627450980005, 0.8196078431372548767, 0.9333333333333333481 ) ;
#26 = DIRECTION ( 'NONE',  ( 0.000000000000000000, -1.000000000000000000, 0.000000000000000000 ) ) ;
#27 = EDGE_LOOP ( 'NONE', ( #208, #349 ) ) ;
#28 = EDGE_CURVE ( 'NONE', #288, #83, #39, .T. ) ;
#29 = DIRECTION ( 'NONE',  ( -0.000000000000000000, 0.000000000000000000, 1.000000000000000000 ) ) ;
#30 = VERTEX_POINT ( 'NONE', #41 ) ;
#31 = CARTESIAN_POINT ( 'NONE',  ( 3.710236220157480336, 0.6932031208878290940, 0.5000000000000000000 ) ) ;
#32 = ORIENTED_EDGE ( 'NONE', *, *, #297, .T. ) ;
#33 = SURFACE_STYLE_FILL_AREA ( #452 ) ;
#34 = CIRCLE ( 'NONE', #44, 0.1900000000000000300 ) ;
#35 = PRESENTATION_STYLE_ASSIGNMENT (( #423 ) ) ;
#36 = EDGE_LOOP ( 'NONE', ( #216, #95 ) ) ;
#37 = EDGE_CURVE ( 'NONE', #296, #149, #456, .T. ) ;
#38 =( CONVERSION_BASED_UNIT ( 'INCH', #118 ) LENGTH_UNIT ( ) NAMED_UNIT ( #367 ) );
#39 = LINE ( 'NONE', #424, #68 ) ;
#40 = CARTESIAN_POINT ( 'NONE',  ( 3.567978265967428619, -0.9198822130789239271, 0.5000000000000000000 ) ) ;
#41 = CARTESIAN_POINT ( 'NONE',  ( 3.633267716535432790, 0.5905511811023621549, 0.5000000000000000000 ) ) ;
#42 = AXIS2_PLACEMENT_3D ( 'NONE', #439, #436, #474 ) ;
#43 = AXIS2_PLACEMENT_3D ( 'NONE', #292, #241, #170 ) ;
#44 = AXIS2_PLACEMENT_3D ( 'NONE', #286, #12, #234 ) ;
#45 = FILL_AREA_STYLE_COLOUR ( '', #214 ) ;
#46 = CARTESIAN_POINT ( 'NONE',  ( 3.567978265967428619, 0.9198822130789239271, 0.5000000000000000000 ) ) ;
#47 = ORIENTED_EDGE ( 'NONE', *, *, #325, .T. ) ;
#48 =( LENGTH_UNIT ( ) NAMED_UNIT ( * ) SI_UNIT ( $, .METRE. ) );
#49 = CARTESIAN_POINT ( 'NONE',  ( 3.633267716535432790, -0.5905511811023621549, 0.5000000000000000000 ) ) ;
#50 = EDGE_CURVE ( 'NONE', #189, #147, #231, .T. ) ;
#51 = CARTESIAN_POINT ( 'NONE',  ( 3.541732283464567033, -0.5905511811023621549, 0.5000000000000000000 ) ) ;
#52 = DIRECTION ( 'NONE',  ( -0.000000000000000000, -0.000000000000000000, -1.000000000000000000 ) ) ;
#53 = LENGTH_MEASURE_WITH_UNIT ( LENGTH_MEASURE( 0.02539999999999999897 ), #285 );
#54 = FACE_BOUND ( 'NONE', #162, .T. ) ;
#55 = ORIENTED_EDGE ( 'NONE', *, *, #100, .F. ) ;
#56 = DIRECTION ( 'NONE',  ( -1.000000000000000000, 0.000000000000000000, 0.000000000000000000 ) ) ;
#57 = DIMENSIONAL_EXPONENTS ( 1.000000000000000000, 0.000000000000000000, 0.000000000000000000, 0.000000000000000000, 0.000000000000000000, 0.000000000000000000, 0.000000000000000000 ) ;
#58 = VECTOR ( 'NONE', #361, 39.37007874015748143 ) ;
#59 = VECTOR ( 'NONE', #346, 39.37007874015748143 ) ;
#60 = UNCERTAINTY_MEASURE_WITH_UNIT (LENGTH_MEASURE( 1.000000000000000082E-05 ), #86, 'distance_accuracy_value', 'NONE');
#61 = LINE ( 'NONE', #295, #347 ) ;
#62 = ADVANCED_FACE ( 'NONE', ( #145 ), #125, .T. ) ;
#63 = ORIENTED_EDGE ( 'NONE', *, *, #10, .F. ) ;
#64 = CARTESIAN_POINT ( 'NONE',  ( 3.710236220157480336, 0.000000000000000000, 0.000000000000000000 ) ) ;
#65 = ORIENTED_EDGE ( 'NONE', *, *, #50, .T. ) ;
#66 = FACE_OUTER_BOUND ( 'NONE', #155, .T. ) ;
#67 = VERTEX_POINT ( 'NONE', #310 ) ;
#68 = VECTOR ( 'NONE', #84, 39.37007874015748143 ) ;
#69 = MECHANICAL_DESIGN_GEOMETRIC_PRESENTATION_REPRESENTATION (  '', ( #329 ), #301 ) ;
#70 = DIRECTION ( 'NONE',  ( -0.8470168963607372925, 0.5315659670063763720, 0.000000000000000000 ) ) ;
#71 = CIRCLE ( 'NONE', #42, 0.09153543307086589587 ) ;
#72 = VERTEX_POINT ( 'NONE', #90 ) ;
#73 = EDGE_CURVE ( 'NONE', #376, #398, #426, .T. ) ;
#74 = FACE_OUTER_BOUND ( 'NONE', #340, .T. ) ;
#75 = ORIENTED_EDGE ( 'NONE', *, *, #355, .T. ) ;
#76 = CARTESIAN_POINT ( 'NONE',  ( 3.710236220157480336, 2.089436863904151172E-15, 4.234364390179608284E-15 ) ) ;
#77 = DIRECTION ( 'NONE',  ( -0.000000000000000000, 0.000000000000000000, 1.000000000000000000 ) ) ;
#78 = VECTOR ( 'NONE', #144, 39.37007874015748143 ) ;
#79 = VECTOR ( 'NONE', #419, 39.37007874015748143 ) ;
#80 = VERTEX_POINT ( 'NONE', #321 ) ;
#81 = ADVANCED_FACE ( 'NONE', ( #128 ), #312, .F. ) ;
#82 = CARTESIAN_POINT ( 'NONE',  ( 3.450196850393701276, 0.5905511811023621549, 0.5000000000000000000 ) ) ;
#83 = VERTEX_POINT ( 'NONE', #239 ) ;
#84 = DIRECTION ( 'NONE',  ( -0.000000000000000000, -0.000000000000000000, -1.000000000000000000 ) ) ;
#85 = EDGE_CURVE ( 'NONE', #337, #72, #236, .T. ) ;
#86 =( CONVERSION_BASED_UNIT ( 'INCH', #53 ) LENGTH_UNIT ( ) NAMED_UNIT ( #57 ) );
#87 = DIRECTION ( 'NONE',  ( 1.000000000000000000, 0.000000000000000000, 0.000000000000000000 ) ) ;
#88 =( NAMED_UNIT ( * ) SI_UNIT ( $, .STERADIAN. ) SOLID_ANGLE_UNIT ( ) );
#89 = FACE_BOUND ( 'NONE', #27, .T. ) ;
#90 = CARTESIAN_POINT ( 'NONE',  ( 3.450196850393701276, 0.5905511811023621549, 0.000000000000000000 ) ) ;
#91 =( CONVERSION_BASED_UNIT ( 'INCH', #392 ) LENGTH_UNIT ( ) NAMED_UNIT ( #441 ) );
#92 = FACE_OUTER_BOUND ( 'NONE', #315, .T. ) ;
#93 = VECTOR ( 'NONE', #264, 39.37007874015748143 ) ;
#94 = EDGE_CURVE ( 'NONE', #250, #147, #275, .T. ) ;
#95 = ORIENTED_EDGE ( 'NONE', *, *, #108, .T. ) ;
#96 = MECHANICAL_DESIGN_GEOMETRIC_PRESENTATION_REPRESENTATION (  '', ( #254 ), #152 ) ;
#97 = FACE_OUTER_BOUND ( 'NONE', #378, .T. ) ;
#98 = ORIENTED_EDGE ( 'NONE', *, *, #50, .F. ) ;
#99 = DIRECTION ( 'NONE',  ( 1.000000000000000000, 0.000000000000000000, 0.000000000000000000 ) ) ;
#100 = EDGE_CURVE ( 'NONE', #80, #222, #429, .T. ) ;
#101 = LINE ( 'NONE', #444, #17 ) ;
#102 = ORIENTED_EDGE ( 'NONE', *, *, #265, .F. ) ;
#103 = VECTOR ( 'NONE', #383, 39.37007874015748854 ) ;
#104 = CARTESIAN_POINT ( 'NONE',  ( 3.633267716535432790, -0.5905511811023621549, 0.000000000000000000 ) ) ;
#105 = ORIENTED_EDGE ( 'NONE', *, *, #478, .F. ) ;
#106 = DIRECTION ( 'NONE',  ( 0.000000000000000000, 0.000000000000000000, -1.000000000000000000 ) ) ;
#107 = VERTEX_POINT ( 'NONE', #354 ) ;
#108 = EDGE_CURVE ( 'NONE', #147, #250, #34, .T. ) ;
#109 = FACE_OUTER_BOUND ( 'NONE', #248, .T. ) ;
#110 = ORIENTED_EDGE ( 'NONE', *, *, #73, .F. ) ;
#111 = DIRECTION ( 'NONE',  ( 0.000000000000000000, 1.000000000000000000, 0.000000000000000000 ) ) ;
#112 = ORIENTED_EDGE ( 'NONE', *, *, #247, .F. ) ;
#113 = CARTESIAN_POINT ( 'NONE',  ( 3.710236220157480336, -0.6932031208878312034, 0.5000000000000000000 ) ) ;
#114 = CARTESIAN_POINT ( 'NONE',  ( 3.567978265967428619, -0.9198822130789239271, 0.5000000000000000000 ) ) ;
#115 = LINE ( 'NONE', #336, #338 ) ;
#116 = ORIENTED_EDGE ( 'NONE', *, *, #135, .T. ) ;
#117 = CARTESIAN_POINT ( 'NONE',  ( 3.450196850393701276, -0.5905511811023621549, 0.5000000000000000000 ) ) ;
#118 = LENGTH_MEASURE_WITH_UNIT ( LENGTH_MEASURE( 0.02539999999999999897 ), #458 );
#119 = CARTESIAN_POINT ( 'NONE',  ( 2.973974539178168897, 1.866389748023732587, 0.000000000000000000 ) ) ;
#120 = LINE ( 'NONE', #82, #79 ) ;
#121 = CARTESIAN_POINT ( 'NONE',  ( 3.541732283464567033, -0.5905511811023621549, 0.000000000000000000 ) ) ;
#122 = DIRECTION ( 'NONE',  ( -0.000000000000000000, -0.000000000000000000, -1.000000000000000000 ) ) ;
#123 = APPLICATION_CONTEXT ( 'automotive_design' ) ;
#124 = CYLINDRICAL_SURFACE ( 'NONE', #197, 0.09153543307086589587 ) ;
#125 = PLANE ( 'NONE',  #203 ) ;
#126 = ADVANCED_FACE ( 'NONE', ( #97, #159, #89 ), #468, .T. ) ;
#127 = DIRECTION ( 'NONE',  ( -0.000000000000000000, 0.000000000000000000, -1.000000000000000000 ) ) ;
#128 = FACE_OUTER_BOUND ( 'NONE', #330, .T. ) ;
#129 = AXIS2_PLACEMENT_3D ( 'NONE', #133, #29, #366 ) ;
#130 = ORIENTED_EDGE ( 'NONE', *, *, #379, .T. ) ;
#131 = DIRECTION ( 'NONE',  ( -0.000000000000000000, 0.000000000000000000, -1.000000000000000000 ) ) ;
#132 = CYLINDRICAL_SURFACE ( 'NONE', #9, 0.09153543307086589587 ) ;
#133 = CARTESIAN_POINT ( 'NONE',  ( 3.541732283464567033, -0.5905511811023621549, 0.5000000000000000000 ) ) ;
#134 = ORIENTED_EDGE ( 'NONE', *, *, #14, .F. ) ;
#135 = EDGE_CURVE ( 'NONE', #225, #189, #467, .T. ) ;
#136 = DIRECTION ( 'NONE',  ( 1.000000000000000000, -0.000000000000000000, -0.000000000000000000 ) ) ;
#137 = VERTEX_POINT ( 'NONE', #49 ) ;
#138 = DIRECTION ( 'NONE',  ( 2.731847993664262725E-16, 1.000000000000000000, -0.000000000000000000 ) ) ;
#139 = VERTEX_POINT ( 'NONE', #357 ) ;
#140 = DIRECTION ( 'NONE',  ( 1.000000000000000000, -0.000000000000000000, -0.000000000000000000 ) ) ;
#141 = ORIENTED_EDGE ( 'NONE', *, *, #200, .T. ) ;
#142 = CIRCLE ( 'NONE', #386, 0.09153543307086589587 ) ;
#143 = VECTOR ( 'NONE', #274, 39.37007874015748143 ) ;
#144 = DIRECTION ( 'NONE',  ( -0.000000000000000000, -0.000000000000000000, -1.000000000000000000 ) ) ;
#145 = FACE_OUTER_BOUND ( 'NONE', #172, .T. ) ;
#146 = ADVANCED_FACE ( 'NONE', ( #233, #54, #242 ), #276, .F. ) ;
#147 = VERTEX_POINT ( 'NONE', #431 ) ;
#148 = CARTESIAN_POINT ( 'NONE',  ( -2.512978378207097799E-16, -0.9198822130789229279, 0.5000000000000000000 ) ) ;
#149 = VERTEX_POINT ( 'NONE', #16 ) ;
#150 = AXIS2_PLACEMENT_3D ( 'NONE', #463, #281, #196 ) ;
#151 = DIRECTION ( 'NONE',  ( -0.000000000000000000, -0.000000000000000000, -1.000000000000000000 ) ) ;
#152 =( GEOMETRIC_REPRESENTATION_CONTEXT ( 3 ) GLOBAL_UNCERTAINTY_ASSIGNED_CONTEXT ( ( #206 ) ) GLOBAL_UNIT_ASSIGNED_CONTEXT ( ( #38, #218, #490 ) ) REPRESENTATION_CONTEXT ( 'NONE', 'WORKASPACE' ) );
#153 = ORIENTED_EDGE ( 'NONE', *, *, #331, .F. ) ;
#154 = DIRECTION ( 'NONE',  ( 0.5315659670063763720, 0.8470168963607372925, 0.000000000000000000 ) ) ;
#155 = EDGE_LOOP ( 'NONE', ( #421, #98, #262, #291 ) ) ;
#156 = CARTESIAN_POINT ( 'NONE',  ( 0.000000000000000000, 0.000000000000000000, 0.5000000000000000000 ) ) ;
#157 = DIRECTION ( 'NONE',  ( -1.000000000000000000, 0.000000000000000000, 0.000000000000000000 ) ) ;
#158 = DIRECTION ( 'NONE',  ( 0.000000000000000000, 0.000000000000000000, -1.000000000000000000 ) ) ;
#159 = FACE_BOUND ( 'NONE', #455, .T. ) ;
#160 = SURFACE_STYLE_FILL_AREA ( #313 ) ;
#161 = CARTESIAN_POINT ( 'NONE',  ( 3.450196850393701276, -0.5905511811023621549, 0.5000000000000000000 ) ) ;
#162 = EDGE_LOOP ( 'NONE', ( #19, #363 ) ) ;
#163 = DIRECTION ( 'NONE',  ( 0.000000000000000000, -1.000000000000000000, 0.000000000000000000 ) ) ;
#164 = CLOSED_SHELL ( 'NONE', ( #177, #232, #316, #62, #449, #277, #81, #454, #255, #486, #126, #146, #270, #168 ) ) ;
#165 = VECTOR ( 'NONE', #487, 39.37007874015748854 ) ;
#166 = APPLICATION_PROTOCOL_DEFINITION ( 'draft international standard', 'automotive_design', 1998, #123 ) ;
#167 = CARTESIAN_POINT ( 'NONE',  ( 3.710236220157480336, 0.6932031208878290940, 0.000000000000000000 ) ) ;
#168 = ADVANCED_FACE ( 'NONE', ( #472 ), #435, .T. ) ;
#169 = ORIENTED_EDGE ( 'NONE', *, *, #303, .T. ) ;
#170 = DIRECTION ( 'NONE',  ( 1.000000000000000000, 0.000000000000000000, 0.000000000000000000 ) ) ;
#171 = DIRECTION ( 'NONE',  ( 0.000000000000000000, -1.000000000000000000, 0.000000000000000000 ) ) ;
#172 = EDGE_LOOP ( 'NONE', ( #405, #360, #245, #141, #477, #112 ) ) ;
#173 = DIRECTION ( 'NONE',  ( 1.000000000000000000, 0.000000000000000000, 0.000000000000000000 ) ) ;
#174 = ORIENTED_EDGE ( 'NONE', *, *, #259, .F. ) ;
#175 = VECTOR ( 'NONE', #350, 39.37007874015748143 ) ;
#176 = PRESENTATION_LAYER_ASSIGNMENT (  '', '', ( #254 ) ) ;
#177 = ADVANCED_FACE ( 'NONE', ( #92 ), #237, .F. ) ;
#178 = PLANE ( 'NONE',  #323 ) ;
#179 = VERTEX_POINT ( 'NONE', #161 ) ;
#180 = PRODUCT_CONTEXT ( 'NONE', #473, 'mechanical' ) ;
#181 = DIRECTION ( 'NONE',  ( 1.000000000000000000, 0.000000000000000000, 0.000000000000000000 ) ) ;
#182 = ORIENTED_EDGE ( 'NONE', *, *, #362, .T. ) ;
#183 = DIRECTION ( 'NONE',  ( 1.000000000000000000, 0.000000000000000000, 0.000000000000000000 ) ) ;
#184 = ORIENTED_EDGE ( 'NONE', *, *, #7, .F. ) ;
#185 = VECTOR ( 'NONE', #493, 39.37007874015748143 ) ;
#186 = PRODUCT_DEFINITION_FORMATION_WITH_SPECIFIED_SOURCE ( 'ANY', '', #278, .NOT_KNOWN. ) ;
#187 = ORIENTED_EDGE ( 'NONE', *, *, #362, .F. ) ;
#188 = CARTESIAN_POINT ( 'NONE',  ( 3.541732283464567033, 0.5905511811023621549, 0.5000000000000000000 ) ) ;
#189 = VERTEX_POINT ( 'NONE', #317 ) ;
#190 = CARTESIAN_POINT ( 'NONE',  ( 3.633267716535432790, -0.5905511811023621549, 0.5000000000000000000 ) ) ;
#191 = VECTOR ( 'NONE', #342, 39.37007874015748143 ) ;
#192 = EDGE_LOOP ( 'NONE', ( #410, #110, #491, #240 ) ) ;
#193 = FACE_OUTER_BOUND ( 'NONE', #13, .T. ) ;
#194 = LINE ( 'NONE', #308, #185 ) ;
#195 = DIRECTION ( 'NONE',  ( -0.000000000000000000, -0.000000000000000000, -1.000000000000000000 ) ) ;
#196 = DIRECTION ( 'NONE',  ( 1.000000000000000000, 0.000000000000000000, 0.000000000000000000 ) ) ;
#197 = AXIS2_PLACEMENT_3D ( 'NONE', #51, #230, #157 ) ;
#198 = LINE ( 'NONE', #279, #143 ) ;
#199 = DIRECTION ( 'NONE',  ( 1.000000000000000000, 0.000000000000000000, 0.000000000000000000 ) ) ;
#200 = EDGE_CURVE ( 'NONE', #305, #376, #202, .T. ) ;
#201 = DIRECTION ( 'NONE',  ( -0.000000000000000000, 0.000000000000000000, 1.000000000000000000 ) ) ;
#202 = LINE ( 'NONE', #6, #253 ) ;
#203 = AXIS2_PLACEMENT_3D ( 'NONE', #433, #359, #131 ) ;
#204 = LINE ( 'NONE', #328, #320 ) ;
#205 = ORIENTED_EDGE ( 'NONE', *, *, #331, .T. ) ;
#206 = UNCERTAINTY_MEASURE_WITH_UNIT (LENGTH_MEASURE( 1.000000000000000082E-05 ), #38, 'distance_accuracy_value', 'NONE');
#207 = CARTESIAN_POINT ( 'NONE',  ( 3.395275590236220165, 2.089436863904151172E-15, 4.234364390179608284E-15 ) ) ;
#208 = ORIENTED_EDGE ( 'NONE', *, *, #273, .F. ) ;
#209 = EDGE_CURVE ( 'NONE', #179, #137, #409, .T. ) ;
#210 = CARTESIAN_POINT ( 'NONE',  ( 0.000000000000000000, 0.9198822130789238161, 0.5000000000000000000 ) ) ;
#211 = PRODUCT_DEFINITION_SHAPE ( 'NONE', 'NONE',  #387 ) ;
#212 = ORIENTED_EDGE ( 'NONE', *, *, #297, .F. ) ;
#213 = AXIS2_PLACEMENT_3D ( 'NONE', #401, #52, #56 ) ;
#214 = COLOUR_RGB ( '',0.7921568627450980005, 0.8196078431372548767, 0.9333333333333333481 ) ;
#215 = PLANE ( 'NONE',  #411 ) ;
#216 = ORIENTED_EDGE ( 'NONE', *, *, #94, .T. ) ;
#217 = EDGE_CURVE ( 'NONE', #72, #337, #447, .T. ) ;
#218 =( NAMED_UNIT ( * ) PLANE_ANGLE_UNIT ( ) SI_UNIT ( $, .RADIAN. ) );
#219 = ORIENTED_EDGE ( 'NONE', *, *, #85, .F. ) ;
#220 = PRODUCT_DEFINITION_CONTEXT ( 'detailed design', #123, 'design' ) ;
#221 = CARTESIAN_POINT ( 'NONE',  ( 3.450196850393701276, 0.5905511811023621549, 0.5000000000000000000 ) ) ;
#222 = VERTEX_POINT ( 'NONE', #326 ) ;
#223 = AXIS2_PLACEMENT_3D ( 'NONE', #121, #425, #87 ) ;
#224 = DIRECTION ( 'NONE',  ( 1.000000000000000000, 0.000000000000000000, 0.000000000000000000 ) ) ;
#225 = VERTEX_POINT ( 'NONE', #167 ) ;
#226 = LINE ( 'NONE', #416, #165 ) ;
#227 = PLANE ( 'NONE',  #238 ) ;
#228 = ORIENTED_EDGE ( 'NONE', *, *, #94, .F. ) ;
#229 = AXIS2_PLACEMENT_3D ( 'NONE', #207, #136, #106 ) ;
#230 = DIRECTION ( 'NONE',  ( -0.000000000000000000, -0.000000000000000000, -1.000000000000000000 ) ) ;
#231 = LINE ( 'NONE', #389, #175 ) ;
#232 = ADVANCED_FACE ( 'NONE', ( #74 ), #132, .F. ) ;
#233 = FACE_OUTER_BOUND ( 'NONE', #440, .T. ) ;
#234 = DIRECTION ( 'NONE',  ( 0.000000000000000000, 0.000000000000000000, -1.000000000000000000 ) ) ;
#235 = PRODUCT_RELATED_PRODUCT_CATEGORY ( 'part', '', ( #278 ) ) ;
#236 = CIRCLE ( 'NONE', #150, 0.09153543307086589587 ) ;
#237 = CYLINDRICAL_SURFACE ( 'NONE', #213, 0.09153543307086589587 ) ;
#238 = AXIS2_PLACEMENT_3D ( 'NONE', #385, #268, #450 ) ;
#239 = CARTESIAN_POINT ( 'NONE',  ( 3.210236220157480336, -0.9198822130789238161, 0.000000000000000000 ) ) ;
#240 = ORIENTED_EDGE ( 'NONE', *, *, #7, .T. ) ;
#241 = DIRECTION ( 'NONE',  ( 0.000000000000000000, 0.000000000000000000, 1.000000000000000000 ) ) ;
#242 = FACE_BOUND ( 'NONE', #461, .T. ) ;
#243 = DIRECTION ( 'NONE',  ( 1.000000000000000000, 0.000000000000000000, 0.000000000000000000 ) ) ;
#244 = AXIS2_PLACEMENT_3D ( 'NONE', #465, #314, #127 ) ;
#245 = ORIENTED_EDGE ( 'NONE', *, *, #348, .F. ) ;
#246 = CARTESIAN_POINT ( 'NONE',  ( 3.541732283464567033, 0.5905511811023621549, 0.000000000000000000 ) ) ;
#247 = EDGE_CURVE ( 'NONE', #139, #398, #334, .T. ) ;
#248 = EDGE_LOOP ( 'NONE', ( #153, #343, #451, #374 ) ) ;
#249 = DIRECTION ( 'NONE',  ( -1.000000000000000000, 0.000000000000000000, 0.000000000000000000 ) ) ;
#250 = VERTEX_POINT ( 'NONE', #293 ) ;
#251 = CARTESIAN_POINT ( 'NONE',  ( 3.710236220157480336, 0.6932031208878290940, 0.5000000000000000000 ) ) ;
#252 = ORIENTED_EDGE ( 'NONE', *, *, #369, .F. ) ;
#253 = VECTOR ( 'NONE', #476, 39.37007874015748143 ) ;
#254 = STYLED_ITEM ( 'NONE', ( #35 ), #420 ) ;
#255 = ADVANCED_FACE ( 'NONE', ( #482 ), #287, .F. ) ;
#256 = VECTOR ( 'NONE', #171, 39.37007874015748143 ) ;
#257 = DIRECTION ( 'NONE',  ( 0.000000000000000000, -1.000000000000000000, 0.000000000000000000 ) ) ;
#258 = ORIENTED_EDGE ( 'NONE', *, *, #217, .F. ) ;
#259 = EDGE_CURVE ( 'NONE', #149, #296, #71, .T. ) ;
#260 = LINE ( 'NONE', #148, #191 ) ;
#261 = LINE ( 'NONE', #31, #284 ) ;
#262 = ORIENTED_EDGE ( 'NONE', *, *, #399, .T. ) ;
#263 = LINE ( 'NONE', #339, #59 ) ;
#264 = DIRECTION ( 'NONE',  ( -0.000000000000000000, -0.000000000000000000, -1.000000000000000000 ) ) ;
#265 = EDGE_CURVE ( 'NONE', #335, #80, #204, .T. ) ;
#266 = LINE ( 'NONE', #2, #306 ) ;
#267 = LINE ( 'NONE', #114, #280 ) ;
#268 = DIRECTION ( 'NONE',  ( -0.8470168963607411783, -0.5315659670063702658, 0.000000000000000000 ) ) ;
#269 = ORIENTED_EDGE ( 'NONE', *, *, #303, .F. ) ;
#270 = ADVANCED_FACE ( 'NONE', ( #66 ), #404, .F. ) ;
#271 =( NAMED_UNIT ( * ) PLANE_ANGLE_UNIT ( ) SI_UNIT ( $, .RADIAN. ) );
#272 = DIRECTION ( 'NONE',  ( 0.000000000000000000, 1.000000000000000000, -0.000000000000000000 ) ) ;
#273 = EDGE_CURVE ( 'NONE', #365, #30, #142, .T. ) ;
#274 = DIRECTION ( 'NONE',  ( -0.000000000000000000, -0.000000000000000000, -1.000000000000000000 ) ) ;
#275 = LINE ( 'NONE', #390, #464 ) ;
#276 = PLANE ( 'NONE',  #371 ) ;
#277 = ADVANCED_FACE ( 'NONE', ( #109 ), #215, .T. ) ;
#278 = PRODUCT ( 'Flagen_adpater_R_2', 'Flagen_adpater_R_2', '', ( #180 ) ) ;
#279 = CARTESIAN_POINT ( 'NONE',  ( 3.633267716535432790, 0.5905511811023621549, 0.5000000000000000000 ) ) ;
#280 = VECTOR ( 'NONE', #302, 39.37007874015748143 ) ;
#281 = DIRECTION ( 'NONE',  ( -0.000000000000000000, 0.000000000000000000, 1.000000000000000000 ) ) ;
#282 = PRESENTATION_LAYER_ASSIGNMENT (  '', '', ( #329 ) ) ;
#283 = ORIENTED_EDGE ( 'NONE', *, *, #200, .F. ) ;
#284 = VECTOR ( 'NONE', #375, 39.37007874015748143 ) ;
#285 =( LENGTH_UNIT ( ) NAMED_UNIT ( * ) SI_UNIT ( $, .METRE. ) );
#286 = CARTESIAN_POINT ( 'NONE',  ( 3.395275590236220165, 2.089436863904151172E-15, 4.234364390179608284E-15 ) ) ;
#287 = PLANE ( 'NONE',  #470 ) ;
#288 = VERTEX_POINT ( 'NONE', #370 ) ;
#289 = CARTESIAN_POINT ( 'NONE',  ( 3.395275590236220165, -0.1899999999999979483, 0.000000000000000000 ) ) ;
#290 = AXIS2_PLACEMENT_3D ( 'NONE', #156, #397, #393 ) ;
#291 = ORIENTED_EDGE ( 'NONE', *, *, #325, .F. ) ;
#292 = CARTESIAN_POINT ( 'NONE',  ( 0.000000000000000000, 0.000000000000000000, 0.000000000000000000 ) ) ;
#293 = CARTESIAN_POINT ( 'NONE',  ( 3.395275590236220165, -0.1899999999999979483, 0.000000000000000000 ) ) ;
#294 = ORIENTED_EDGE ( 'NONE', *, *, #28, .T. ) ;
#295 = CARTESIAN_POINT ( 'NONE',  ( 3.210236220157480336, 0.000000000000000000, 0.5000000000000000000 ) ) ;
#296 = VERTEX_POINT ( 'NONE', #104 ) ;
#297 = EDGE_CURVE ( 'NONE', #67, #83, #101, .T. ) ;
#298 = LINE ( 'NONE', #446, #58 ) ;
#299 = ORIENTED_EDGE ( 'NONE', *, *, #384, .T. ) ;
#300 = VECTOR ( 'NONE', #140, 39.37007874015748143 ) ;
#301 =( GEOMETRIC_REPRESENTATION_CONTEXT ( 3 ) GLOBAL_UNCERTAINTY_ASSIGNED_CONTEXT ( ( #358 ) ) GLOBAL_UNIT_ASSIGNED_CONTEXT ( ( #91, #11, #466 ) ) REPRESENTATION_CONTEXT ( 'NONE', 'WORKASPACE' ) );
#302 = DIRECTION ( 'NONE',  ( -0.000000000000000000, -0.000000000000000000, -1.000000000000000000 ) ) ;
#303 = EDGE_CURVE ( 'NONE', #335, #288, #61, .T. ) ;
#304 = CARTESIAN_POINT ( 'NONE',  ( 3.541732283464567033, -0.5905511811023621549, 0.5000000000000000000 ) ) ;
#305 = VERTEX_POINT ( 'NONE', #251 ) ;
#306 = VECTOR ( 'NONE', #154, 39.37007874015748143 ) ;
#307 = CARTESIAN_POINT ( 'NONE',  ( 3.710236220157480336, -0.6932031208878312034, 0.000000000000000000 ) ) ;
#308 = CARTESIAN_POINT ( 'NONE',  ( -2.512978378207097799E-16, -0.9198822130789229279, 0.000000000000000000 ) ) ;
#309 = FACE_OUTER_BOUND ( 'NONE', #443, .T. ) ;
#310 = CARTESIAN_POINT ( 'NONE',  ( 3.210236220157480336, 0.9198822130789238161, 0.000000000000000000 ) ) ;
#311 = DIRECTION ( 'NONE',  ( -1.000000000000000000, 0.000000000000000000, 0.000000000000000000 ) ) ;
#312 = PLANE ( 'NONE',  #244 ) ;
#313 = FILL_AREA_STYLE ('',( #45 ) ) ;
#314 = DIRECTION ( 'NONE',  ( 1.000000000000000000, 0.000000000000000000, -0.000000000000000000 ) ) ;
#315 = EDGE_LOOP ( 'NONE', ( #327, #318, #258, #333 ) ) ;
#316 = ADVANCED_FACE ( 'NONE', ( #484 ), #178, .F. ) ;
#317 = CARTESIAN_POINT ( 'NONE',  ( 3.710236220157480336, 0.1900000000000021116, 0.000000000000000000 ) ) ;
#318 = ORIENTED_EDGE ( 'NONE', *, *, #478, .T. ) ;
#319 = APPLICATION_PROTOCOL_DEFINITION ( 'draft international standard', 'automotive_design', 1998, #473 ) ;
#320 = VECTOR ( 'NONE', #173, 39.37007874015748143 ) ;
#321 = CARTESIAN_POINT ( 'NONE',  ( 3.567978265967428619, 0.9198822130789239271, 0.5000000000000000000 ) ) ;
#322 = AXIS2_PLACEMENT_3D ( 'NONE', #304, #77, #224 ) ;
#323 = AXIS2_PLACEMENT_3D ( 'NONE', #332, #70, #20 ) ;
#324 = CARTESIAN_POINT ( 'NONE',  ( 3.633267716535432790, 0.5905511811023621549, 0.000000000000000000 ) ) ;
#325 = EDGE_CURVE ( 'NONE', #250, #139, #373, .T. ) ;
#326 = CARTESIAN_POINT ( 'NONE',  ( 3.567978265967428619, 0.9198822130789239271, 0.000000000000000000 ) ) ;
#327 = ORIENTED_EDGE ( 'NONE', *, *, #273, .T. ) ;
#328 = CARTESIAN_POINT ( 'NONE',  ( 0.000000000000000000, 0.9198822130789238161, 0.5000000000000000000 ) ) ;
#329 = STYLED_ITEM ( 'NONE', ( #351 ), #475 ) ;
#330 = EDGE_LOOP ( 'NONE', ( #32, #483, #269, #481 ) ) ;
#331 = EDGE_CURVE ( 'NONE', #67, #222, #298, .T. ) ;
#332 = CARTESIAN_POINT ( 'NONE',  ( 2.973974539178148024, -1.866389748023749462, 0.5000000000000000000 ) ) ;
#333 = ORIENTED_EDGE ( 'NONE', *, *, #394, .F. ) ;
#334 = LINE ( 'NONE', #64, #256 ) ;
#335 = VERTEX_POINT ( 'NONE', #18 ) ;
#336 = CARTESIAN_POINT ( 'NONE',  ( 3.210236220157480336, 0.9198822130789238161, 0.5000000000000000000 ) ) ;
#337 = VERTEX_POINT ( 'NONE', #324 ) ;
#338 = VECTOR ( 'NONE', #151, 39.37007874015748143 ) ;
#339 = CARTESIAN_POINT ( 'NONE',  ( 2.973974539178148024, -1.866389748023749462, 0.000000000000000000 ) ) ;
#340 = EDGE_LOOP ( 'NONE', ( #382, #469, #174, #134 ) ) ;
#341 = EDGE_CURVE ( 'NONE', #137, #296, #344, .T. ) ;
#342 = DIRECTION ( 'NONE',  ( 1.000000000000000000, -2.731847993664262725E-16, 0.000000000000000000 ) ) ;
#343 = ORIENTED_EDGE ( 'NONE', *, *, #428, .F. ) ;
#344 = LINE ( 'NONE', #190, #78 ) ;
#345 = VECTOR ( 'NONE', #122, 39.37007874015748143 ) ;
#346 = DIRECTION ( 'NONE',  ( 0.5315659670063763720, 0.8470168963607372925, 0.000000000000000000 ) ) ;
#347 = VECTOR ( 'NONE', #257, 39.37007874015748143 ) ;
#348 = EDGE_CURVE ( 'NONE', #305, #225, #261, .T. ) ;
#349 = ORIENTED_EDGE ( 'NONE', *, *, #384, .F. ) ;
#350 = DIRECTION ( 'NONE',  ( -1.000000000000000000, 0.000000000000000000, 0.000000000000000000 ) ) ;
#351 = PRESENTATION_STYLE_ASSIGNMENT (( #427 ) ) ;
#352 = CARTESIAN_POINT ( 'NONE',  ( 3.710236220157480336, 0.000000000000000000, 0.000000000000000000 ) ) ;
#353 =( GEOMETRIC_REPRESENTATION_CONTEXT ( 3 ) GLOBAL_UNCERTAINTY_ASSIGNED_CONTEXT ( ( #60 ) ) GLOBAL_UNIT_ASSIGNED_CONTEXT ( ( #86, #271, #88 ) ) REPRESENTATION_CONTEXT ( 'NONE', 'WORKASPACE' ) );
#354 = CARTESIAN_POINT ( 'NONE',  ( 3.567978265967428619, -0.9198822130789239271, 0.000000000000000000 ) ) ;
#355 = EDGE_CURVE ( 'NONE', #305, #80, #226, .T. ) ;
#356 = CYLINDRICAL_SURFACE ( 'NONE', #4, 0.09153543307086589587 ) ;
#357 = CARTESIAN_POINT ( 'NONE',  ( 3.710236220157480336, -0.1899999999999979483, 0.000000000000000000 ) ) ;
#358 = UNCERTAINTY_MEASURE_WITH_UNIT (LENGTH_MEASURE( 1.000000000000000082E-05 ), #91, 'distance_accuracy_value', 'NONE');
#359 = DIRECTION ( 'NONE',  ( 1.000000000000000000, 0.000000000000000000, -0.000000000000000000 ) ) ;
#360 = ORIENTED_EDGE ( 'NONE', *, *, #135, .F. ) ;
#361 = DIRECTION ( 'NONE',  ( 1.000000000000000000, 0.000000000000000000, 0.000000000000000000 ) ) ;
#362 = EDGE_CURVE ( 'NONE', #288, #403, #260, .T. ) ;
#363 = ORIENTED_EDGE ( 'NONE', *, *, #37, .T. ) ;
#364 = CARTESIAN_POINT ( 'NONE',  ( 3.541732283464567033, 0.5905511811023621549, 0.5000000000000000000 ) ) ;
#365 = VERTEX_POINT ( 'NONE', #221 ) ;
#366 = DIRECTION ( 'NONE',  ( 1.000000000000000000, 0.000000000000000000, 0.000000000000000000 ) ) ;
#367 = DIMENSIONAL_EXPONENTS ( 1.000000000000000000, 0.000000000000000000, 0.000000000000000000, 0.000000000000000000, 0.000000000000000000, 0.000000000000000000, 0.000000000000000000 ) ;
#368 = EDGE_LOOP ( 'NONE', ( #391, #184, #187, #294 ) ) ;
#369 = EDGE_CURVE ( 'NONE', #107, #398, #263, .T. ) ;
#370 = CARTESIAN_POINT ( 'NONE',  ( 3.210236220157480336, -0.9198822130789238161, 0.5000000000000000000 ) ) ;
#371 = AXIS2_PLACEMENT_3D ( 'NONE', #8, #201, #199 ) ;
#372 = ORIENTED_EDGE ( 'NONE', *, *, #422, .T. ) ;
#373 = LINE ( 'NONE', #289, #300 ) ;
#374 = ORIENTED_EDGE ( 'NONE', *, *, #100, .T. ) ;
#375 = DIRECTION ( 'NONE',  ( -0.000000000000000000, -0.000000000000000000, -1.000000000000000000 ) ) ;
#376 = VERTEX_POINT ( 'NONE', #113 ) ;
#377 = FILL_AREA_STYLE_COLOUR ( '', #25 ) ;
#378 = EDGE_LOOP ( 'NONE', ( #372, #283, #75, #102, #169, #182 ) ) ;
#379 = EDGE_CURVE ( 'NONE', #137, #179, #479, .T. ) ;
#380 = CIRCLE ( 'NONE', #395, 0.09153543307086589587 ) ;
#381 = DIRECTION ( 'NONE',  ( 0.000000000000000000, 0.000000000000000000, -1.000000000000000000 ) ) ;
#382 = ORIENTED_EDGE ( 'NONE', *, *, #209, .T. ) ;
#383 = DIRECTION ( 'NONE',  ( -0.5315659670063701547, 0.8470168963607410673, 0.000000000000000000 ) ) ;
#384 = EDGE_CURVE ( 'NONE', #30, #365, #380, .T. ) ;
#385 = CARTESIAN_POINT ( 'NONE',  ( 2.973974539178168897, 1.866389748023732587, 0.5000000000000000000 ) ) ;
#386 = AXIS2_PLACEMENT_3D ( 'NONE', #364, #408, #181 ) ;
#387 = PRODUCT_DEFINITION ( 'UNKNOWN', '', #186, #220 ) ;
#388 = DIRECTION ( 'NONE',  ( -0.000000000000000000, -0.000000000000000000, -1.000000000000000000 ) ) ;
#389 = CARTESIAN_POINT ( 'NONE',  ( 3.395275590236220165, 0.1900000000000021116, 0.000000000000000000 ) ) ;
#390 = CARTESIAN_POINT ( 'NONE',  ( 3.395275590236220165, 0.000000000000000000, 0.000000000000000000 ) ) ;
#391 = ORIENTED_EDGE ( 'NONE', *, *, #1, .T. ) ;
#392 = LENGTH_MEASURE_WITH_UNIT ( LENGTH_MEASURE( 0.02539999999999999897 ), #48 );
#393 = DIRECTION ( 'NONE',  ( 1.000000000000000000, 0.000000000000000000, 0.000000000000000000 ) ) ;
#394 = EDGE_CURVE ( 'NONE', #365, #72, #120, .T. ) ;
#395 = AXIS2_PLACEMENT_3D ( 'NONE', #188, #460, #414 ) ;
#396 = CARTESIAN_POINT ( 'NONE',  ( 3.710236220157480336, -0.6932031208878312034, 0.5000000000000000000 ) ) ;
#397 = DIRECTION ( 'NONE',  ( -0.000000000000000000, 0.000000000000000000, 1.000000000000000000 ) ) ;
#398 = VERTEX_POINT ( 'NONE', #307 ) ;
#399 = EDGE_CURVE ( 'NONE', #189, #139, #457, .T. ) ;
#400 = SHAPE_DEFINITION_REPRESENTATION ( #211, #475 ) ;
#401 = CARTESIAN_POINT ( 'NONE',  ( 3.541732283464567033, 0.5905511811023621549, 0.5000000000000000000 ) ) ;
#402 = CARTESIAN_POINT ( 'NONE',  ( -2.512978378207097799E-16, -0.9198822130789229279, 0.5000000000000000000 ) ) ;
#403 = VERTEX_POINT ( 'NONE', #40 ) ;
#404 = CYLINDRICAL_SURFACE ( 'NONE', #229, 0.1900000000000000300 ) ;
#405 = ORIENTED_EDGE ( 'NONE', *, *, #399, .F. ) ;
#406 = DIRECTION ( 'NONE',  ( -0.000000000000000000, -0.000000000000000000, -1.000000000000000000 ) ) ;
#407 = ORIENTED_EDGE ( 'NONE', *, *, #355, .F. ) ;
#408 = DIRECTION ( 'NONE',  ( -0.000000000000000000, 0.000000000000000000, 1.000000000000000000 ) ) ;
#409 = CIRCLE ( 'NONE', #129, 0.09153543307086589587 ) ;
#410 = ORIENTED_EDGE ( 'NONE', *, *, #369, .T. ) ;
#411 = AXIS2_PLACEMENT_3D ( 'NONE', #210, #111, #412 ) ;
#412 = DIRECTION ( 'NONE',  ( 0.000000000000000000, -0.000000000000000000, 1.000000000000000000 ) ) ;
#413 = ORIENTED_EDGE ( 'NONE', *, *, #348, .T. ) ;
#414 = DIRECTION ( 'NONE',  ( 1.000000000000000000, 0.000000000000000000, 0.000000000000000000 ) ) ;
#415 = ORIENTED_EDGE ( 'NONE', *, *, #341, .F. ) ;
#416 = CARTESIAN_POINT ( 'NONE',  ( 2.973974539178168897, 1.866389748023732587, 0.5000000000000000000 ) ) ;
#417 = ORIENTED_EDGE ( 'NONE', *, *, #209, .F. ) ;
#418 = AXIS2_PLACEMENT_3D ( 'NONE', #76, #183, #381 ) ;
#419 = DIRECTION ( 'NONE',  ( -0.000000000000000000, -0.000000000000000000, -1.000000000000000000 ) ) ;
#420 = MANIFOLD_SOLID_BREP ( 'Cut-Extrude1', #164 ) ;
#421 = ORIENTED_EDGE ( 'NONE', *, *, #108, .F. ) ;
#422 = EDGE_CURVE ( 'NONE', #403, #376, #266, .T. ) ;
#423 = SURFACE_STYLE_USAGE ( .BOTH. , #492 ) ;
#424 = CARTESIAN_POINT ( 'NONE',  ( 3.210236220157480336, -0.9198822130789238161, 0.5000000000000000000 ) ) ;
#425 = DIRECTION ( 'NONE',  ( -0.000000000000000000, 0.000000000000000000, 1.000000000000000000 ) ) ;
#426 = LINE ( 'NONE', #396, #345 ) ;
#427 = SURFACE_STYLE_USAGE ( .BOTH. , #471 ) ;
#428 = EDGE_CURVE ( 'NONE', #335, #67, #115, .T. ) ;
#429 = LINE ( 'NONE', #46, #488 ) ;
#430 = CARTESIAN_POINT ( 'NONE',  ( 3.541732283464567033, 0.5905511811023621549, 0.5000000000000000000 ) ) ;
#431 = CARTESIAN_POINT ( 'NONE',  ( 3.395275590236220165, 0.1900000000000021116, 0.000000000000000000 ) ) ;
#432 = AXIS2_PLACEMENT_3D ( 'NONE', #15, #99, #158 ) ;
#433 = CARTESIAN_POINT ( 'NONE',  ( 3.710236220157480336, 0.000000000000000000, 0.5000000000000000000 ) ) ;
#434 = ORIENTED_EDGE ( 'NONE', *, *, #394, .T. ) ;
#435 = PLANE ( 'NONE',  #432 ) ;
#436 = DIRECTION ( 'NONE',  ( -0.000000000000000000, 0.000000000000000000, 1.000000000000000000 ) ) ;
#437 = EDGE_LOOP ( 'NONE', ( #415, #130, #23, #21 ) ) ;
#438 = AXIS2_PLACEMENT_3D ( 'NONE', #246, #480, #243 ) ;
#439 = CARTESIAN_POINT ( 'NONE',  ( 3.541732283464567033, -0.5905511811023621549, 0.000000000000000000 ) ) ;
#440 = EDGE_LOOP ( 'NONE', ( #228, #47, #489, #252, #3, #212, #205, #63, #116, #65 ) ) ;
#441 = DIMENSIONAL_EXPONENTS ( 1.000000000000000000, 0.000000000000000000, 0.000000000000000000, 0.000000000000000000, 0.000000000000000000, 0.000000000000000000, 0.000000000000000000 ) ;
#442 = DIRECTION ( 'NONE',  ( -1.000000000000000000, 2.731847993664262725E-16, 0.000000000000000000 ) ) ;
#443 = EDGE_LOOP ( 'NONE', ( #445, #55, #407, #413 ) ) ;
#444 = CARTESIAN_POINT ( 'NONE',  ( 3.210236220157480336, 0.000000000000000000, 0.000000000000000000 ) ) ;
#445 = ORIENTED_EDGE ( 'NONE', *, *, #10, .T. ) ;
#446 = CARTESIAN_POINT ( 'NONE',  ( -0.000000000000000000, 0.9198822130789238161, 0.000000000000000000 ) ) ;
#447 = CIRCLE ( 'NONE', #438, 0.09153543307086589587 ) ;
#448 = ORIENTED_EDGE ( 'NONE', *, *, #217, .T. ) ;
#449 = ADVANCED_FACE ( 'NONE', ( #309 ), #227, .F. ) ;
#450 = DIRECTION ( 'NONE',  ( 0.5315659670063701547, -0.8470168963607410673, 0.000000000000000000 ) ) ;
#451 = ORIENTED_EDGE ( 'NONE', *, *, #265, .T. ) ;
#452 = FILL_AREA_STYLE ('',( #377 ) ) ;
#453 = LINE ( 'NONE', #119, #103 ) ;
#454 = ADVANCED_FACE ( 'NONE', ( #462 ), #124, .F. ) ;
#455 = EDGE_LOOP ( 'NONE', ( #417, #485 ) ) ;
#456 = CIRCLE ( 'NONE', #223, 0.09153543307086589587 ) ;
#457 = CIRCLE ( 'NONE', #418, 0.1900000000000000300 ) ;
#458 =( LENGTH_UNIT ( ) NAMED_UNIT ( * ) SI_UNIT ( $, .METRE. ) );
#459 = ORIENTED_EDGE ( 'NONE', *, *, #85, .T. ) ;
#460 = DIRECTION ( 'NONE',  ( -0.000000000000000000, 0.000000000000000000, 1.000000000000000000 ) ) ;
#461 = EDGE_LOOP ( 'NONE', ( #448, #459 ) ) ;
#462 = FACE_OUTER_BOUND ( 'NONE', #437, .T. ) ;
#463 = CARTESIAN_POINT ( 'NONE',  ( 3.541732283464567033, 0.5905511811023621549, 0.000000000000000000 ) ) ;
#464 = VECTOR ( 'NONE', #272, 39.37007874015748143 ) ;
#465 = CARTESIAN_POINT ( 'NONE',  ( 3.210236220157480336, 0.000000000000000000, 0.5000000000000000000 ) ) ;
#466 =( NAMED_UNIT ( * ) SI_UNIT ( $, .STERADIAN. ) SOLID_ANGLE_UNIT ( ) );
#467 = LINE ( 'NONE', #352, #24 ) ;
#468 = PLANE ( 'NONE',  #290 ) ;
#469 = ORIENTED_EDGE ( 'NONE', *, *, #341, .T. ) ;
#470 = AXIS2_PLACEMENT_3D ( 'NONE', #402, #138, #442 ) ;
#471 = SURFACE_SIDE_STYLE ('',( #160 ) ) ;
#472 = FACE_OUTER_BOUND ( 'NONE', #36, .T. ) ;
#473 = APPLICATION_CONTEXT ( 'automotive_design' ) ;
#474 = DIRECTION ( 'NONE',  ( 1.000000000000000000, 0.000000000000000000, 0.000000000000000000 ) ) ;
#475 = ADVANCED_BREP_SHAPE_REPRESENTATION ( 'Flagen_adpater_R_2', ( #420, #43 ), #353 ) ;
#476 = DIRECTION ( 'NONE',  ( 0.000000000000000000, -1.000000000000000000, 0.000000000000000000 ) ) ;
#477 = ORIENTED_EDGE ( 'NONE', *, *, #73, .T. ) ;
#478 = EDGE_CURVE ( 'NONE', #30, #337, #198, .T. ) ;
#479 = CIRCLE ( 'NONE', #322, 0.09153543307086589587 ) ;
#480 = DIRECTION ( 'NONE',  ( -0.000000000000000000, 0.000000000000000000, 1.000000000000000000 ) ) ;
#481 = ORIENTED_EDGE ( 'NONE', *, *, #428, .T. ) ;
#482 = FACE_OUTER_BOUND ( 'NONE', #368, .T. ) ;
#483 = ORIENTED_EDGE ( 'NONE', *, *, #28, .F. ) ;
#484 = FACE_OUTER_BOUND ( 'NONE', #192, .T. ) ;
#485 = ORIENTED_EDGE ( 'NONE', *, *, #379, .F. ) ;
#486 = ADVANCED_FACE ( 'NONE', ( #193 ), #356, .F. ) ;
#487 = DIRECTION ( 'NONE',  ( -0.5315659670063701547, 0.8470168963607410673, 0.000000000000000000 ) ) ;
#488 = VECTOR ( 'NONE', #195, 39.37007874015748143 ) ;
#489 = ORIENTED_EDGE ( 'NONE', *, *, #247, .T. ) ;
#490 =( NAMED_UNIT ( * ) SI_UNIT ( $, .STERADIAN. ) SOLID_ANGLE_UNIT ( ) );
#491 = ORIENTED_EDGE ( 'NONE', *, *, #422, .F. ) ;
#492 = SURFACE_SIDE_STYLE ('',( #33 ) ) ;
#493 = DIRECTION ( 'NONE',  ( 1.000000000000000000, -2.731847993664262725E-16, 0.000000000000000000 ) ) ;
ENDSEC;
END-ISO-10303-21;
